if (_typeface_js && _typeface_js.loadFace) _typeface_js.loadFace({"glyphs":{"S":{"x_min":47,"x_max":825,"ha":875,"o":"m 143 326 q 168 198 143 249 q 236 116 193 147 q 340 73 280 86 q 468 60 400 60 q 553 71 507 60 q 638 106 598 82 q 704 168 678 130 q 731 261 731 206 q 712 333 731 302 q 663 384 693 363 q 596 418 633 405 q 525 439 560 431 l 305 494 q 220 521 260 505 q 149 566 180 538 q 100 634 119 594 q 82 733 82 674 q 95 818 82 769 q 147 910 109 866 q 252 983 186 953 q 423 1013 319 1013 q 563 993 497 1013 q 681 935 630 974 q 760 838 731 896 q 790 704 790 780 l 694 704 q 671 803 694 761 q 611 874 649 845 q 526 917 574 902 q 425 932 478 932 q 331 921 376 932 q 251 888 286 911 q 196 827 217 865 q 176 734 176 790 q 187 674 176 699 q 220 631 199 648 q 268 601 241 613 q 325 583 295 590 l 567 523 q 667 489 620 509 q 749 439 713 469 q 804 366 784 409 q 825 262 825 323 q 821 217 825 245 q 804 158 818 190 q 767 95 791 127 q 700 37 743 63 q 596 -5 658 10 q 446 -21 533 -21 q 284 0 359 -21 q 156 61 209 19 q 75 169 103 103 q 47 326 47 235 l 143 326 "},"/":{"x_min":-18.0625,"x_max":480.5625,"ha":463,"o":"m -18 -21 l 409 1013 l 480 1013 l 56 -21 l -18 -21 "},"į":{"x_min":-7,"x_max":228.953125,"ha":257,"o":"m 172 0 q 116 -54 138 -30 q 84 -98 94 -79 q 71 -131 74 -118 q 69 -162 69 -144 q 86 -212 69 -196 q 124 -228 103 -228 q 165 -210 148 -228 q 192 -171 183 -193 l 228 -189 q 177 -261 208 -241 q 106 -282 147 -282 q 22 -250 52 -282 q -7 -168 -7 -218 q -2 -141 -7 -156 q 12 -106 1 -125 q 50 -59 23 -87 q 124 0 77 -31 l 84 0 l 84 717 l 172 717 l 172 0 m 84 992 l 172 992 l 172 852 l 84 852 l 84 992 "},"Ŧ":{"x_min":-7,"x_max":779,"ha":772,"o":"m -7 992 l 779 992 l 779 911 l 433 911 l 433 675 l 662 675 l 662 612 l 433 612 l 433 0 l 339 0 l 339 612 l 111 612 l 111 675 l 339 675 l 339 911 l -7 911 l -7 992 "},"Ő":{"x_min":47,"x_max":982,"ha":1029,"o":"m 141 496 q 162 336 141 414 q 229 196 184 258 q 345 97 274 134 q 515 60 416 60 q 683 97 612 60 q 799 196 754 134 q 866 336 844 258 q 888 496 888 414 q 866 654 888 576 q 799 795 844 733 q 683 894 754 857 q 515 932 612 932 q 345 894 416 932 q 229 795 274 857 q 162 654 184 733 q 141 496 141 576 m 47 496 q 76 691 47 597 q 163 856 105 785 q 310 970 222 928 q 515 1013 398 1013 q 719 970 631 1013 q 865 856 806 928 q 952 691 923 785 q 982 496 982 597 q 952 300 982 394 q 865 135 923 206 q 719 21 806 63 q 515 -21 631 -21 q 310 21 398 -21 q 163 135 222 63 q 76 300 105 206 q 47 496 47 394 m 581 1084 l 722 1280 l 828 1280 l 652 1084 l 581 1084 m 364 1084 l 505 1280 l 611 1280 l 435 1084 l 364 1084 "},"y":{"x_min":3.171875,"x_max":640.671875,"ha":643,"o":"m 3 716 l 96 716 l 332 105 l 553 717 l 640 717 l 329 -110 q 294 -184 310 -155 q 257 -231 278 -214 q 209 -256 236 -248 q 140 -264 182 -264 q 99 -264 114 -264 q 74 -258 85 -264 l 74 -185 q 103 -189 89 -187 q 133 -192 118 -192 q 181 -183 162 -192 q 214 -160 200 -175 q 237 -125 228 -146 q 258 -79 247 -104 l 289 2 l 3 716 "},"Ž":{"x_min":7,"x_max":779,"ha":797,"o":"m 51 992 l 765 992 l 765 908 l 112 80 l 779 80 l 779 -1 l 7 -1 l 7 82 l 659 911 l 51 911 l 51 992 m 191 1279 l 281 1279 l 401 1137 l 523 1279 l 603 1279 l 445 1083 l 349 1083 l 191 1279 "},"g":{"x_min":47,"x_max":688.5,"ha":772,"o":"m 688 58 q 671 -85 688 -22 q 616 -194 653 -149 q 517 -262 578 -238 q 369 -286 457 -286 q 263 -273 314 -286 q 170 -234 211 -260 q 102 -167 129 -208 q 75 -69 75 -126 l 160 -69 q 187 -136 167 -109 q 236 -180 208 -163 q 299 -204 265 -197 q 370 -212 334 -212 q 546 -142 492 -212 q 601 58 601 -73 l 601 156 l 598 156 q 507 48 567 88 q 370 8 448 8 q 223 36 284 8 q 122 115 162 65 q 65 232 83 165 q 47 376 47 300 q 68 516 47 450 q 131 631 90 582 q 232 709 171 681 q 370 738 292 738 q 510 695 449 738 q 598 594 571 653 l 601 594 l 601 717 l 688 717 l 688 58 m 370 82 q 470 106 427 82 q 542 170 513 130 q 586 261 571 209 q 601 366 601 312 q 588 472 601 419 q 548 568 576 525 q 476 637 520 611 q 370 664 433 664 q 263 638 308 664 q 190 571 219 612 q 147 476 160 529 q 134 366 134 422 q 148 261 134 312 q 191 170 162 209 q 265 106 220 130 q 370 82 309 82 "},"ĥ":{"x_min":82,"x_max":664,"ha":746,"o":"m 82 992 l 169 992 l 169 593 l 172 593 q 207 652 184 625 q 261 698 230 679 q 327 727 291 717 q 401 738 363 738 q 527 718 476 738 q 608 663 577 699 q 651 576 639 628 q 664 461 664 525 l 664 0 l 576 0 l 576 447 q 568 532 576 493 q 538 601 559 572 q 482 647 517 630 q 393 664 446 664 q 299 645 340 664 q 229 594 258 626 q 184 516 200 561 q 169 418 169 470 l 169 0 l 82 0 l 82 992 m 575 1083 l 484 1083 l 365 1224 l 243 1083 l 162 1083 l 320 1278 l 416 1278 l 575 1083 "},"–":{"x_min":0,"x_max":694,"ha":694,"o":"m 0 342 l 0 423 l 694 423 l 694 342 l 0 342 "},"e":{"x_min":47,"x_max":687.28125,"ha":721,"o":"m 597 408 q 581 504 597 458 q 535 585 565 550 q 465 642 506 621 q 370 664 423 664 q 274 642 316 664 q 203 585 233 621 q 157 503 174 550 q 134 408 140 457 l 597 408 m 134 335 q 148 236 134 286 q 190 145 162 186 q 262 79 217 105 q 370 52 308 52 q 520 103 466 52 q 595 236 574 154 l 683 236 q 581 46 655 113 q 370 -21 506 -21 q 223 9 284 -21 q 123 92 162 40 q 65 213 84 144 q 47 358 47 282 q 65 497 47 429 q 123 619 84 565 q 223 705 162 672 q 369 738 283 738 q 516 703 455 738 q 615 612 577 668 q 670 482 654 555 q 687 335 687 410 l 134 335 "},"J":{"x_min":29,"x_max":594,"ha":694,"o":"m 500 992 l 594 992 l 594 276 q 578 145 594 201 q 529 51 563 88 q 440 -2 495 15 q 305 -21 385 -21 q 165 7 219 -21 q 81 83 112 35 q 40 192 51 131 q 29 318 29 252 l 126 318 q 126 241 126 286 q 143 157 126 197 q 199 88 161 116 q 312 60 238 60 q 404 74 368 60 q 462 120 441 89 q 491 200 483 151 q 500 316 500 248 l 500 992 "},"ŷ":{"x_min":3.171875,"x_max":640.671875,"ha":643,"o":"m 3 716 l 96 716 l 332 105 l 553 717 l 640 717 l 329 -110 q 294 -184 310 -155 q 257 -231 278 -214 q 209 -256 236 -248 q 140 -264 182 -264 q 99 -264 114 -264 q 74 -258 85 -264 l 74 -185 q 103 -189 89 -187 q 133 -192 118 -192 q 181 -183 162 -192 q 214 -160 200 -175 q 237 -125 228 -146 q 258 -79 247 -104 l 289 2 l 3 716 m 537 819 l 447 819 l 328 960 l 205 819 l 125 819 l 283 1015 l 379 1015 l 537 819 "},"ŕ":{"x_min":83,"x_max":437.171875,"ha":437,"o":"m 83 717 l 163 717 l 163 549 l 166 549 q 269 681 199 635 q 437 728 339 728 l 437 640 q 328 621 377 640 q 244 568 280 602 q 189 485 209 534 q 170 382 170 437 l 170 0 l 83 0 l 83 717 m 162 820 l 91 820 l 237 1016 l 345 1016 l 162 820 "},"ļ":{"x_min":71,"x_max":190,"ha":257,"o":"m 85 992 l 172 992 l 172 0 l 85 0 l 85 992 m 190 -70 l 190 -181 q 172 -240 190 -219 q 131 -272 155 -262 q 71 -282 106 -282 l 71 -243 q 101 -232 91 -239 q 117 -216 111 -226 q 125 -196 123 -207 l 71 -196 l 71 -70 l 190 -70 "},"Ĕ":{"x_min":100,"x_max":791.234375,"ha":823,"o":"m 100 992 l 784 992 l 784 911 l 194 911 l 194 553 l 746 553 l 746 472 l 194 472 l 194 80 l 791 80 l 791 -1 l 100 -1 l 100 992 m 296 1269 q 309 1220 296 1242 q 342 1184 322 1199 q 386 1162 361 1169 q 438 1156 411 1156 q 489 1163 464 1156 q 535 1185 514 1171 q 568 1221 555 1200 q 585 1269 581 1242 l 639 1269 q 574 1140 628 1187 q 436 1093 520 1093 q 298 1138 351 1093 q 245 1269 245 1184 l 296 1269 "},"ţ":{"x_min":10,"x_max":368,"ha":411,"o":"m 222 717 l 368 717 l 368 643 l 223 643 l 223 158 q 234 91 223 115 q 293 66 246 66 q 368 69 330 66 l 368 -7 q 328 -7 348 -7 q 290 -7 309 -7 q 168 27 203 -7 q 134 152 134 61 l 134 643 l 10 643 l 10 717 l 135 717 l 135 932 l 222 932 l 222 717 m 308 -70 l 308 -181 q 290 -240 308 -219 q 249 -272 273 -262 q 189 -282 224 -282 l 189 -243 q 219 -232 210 -239 q 235 -216 229 -226 q 243 -196 241 -207 l 189 -196 l 189 -70 l 308 -70 "},"Ă":{"x_min":-9.546875,"x_max":884.5,"ha":875,"o":"m 240 389 l 630 389 l 438 897 l 240 389 m 390 992 l 495 992 l 884 0 l 783 0 l 662 308 l 211 308 l 91 0 l -9 0 l 390 992 m 297 1270 q 310 1220 297 1242 q 343 1184 323 1199 q 387 1162 362 1169 q 439 1156 412 1156 q 491 1163 465 1156 q 536 1185 516 1171 q 569 1221 556 1200 q 587 1270 583 1242 l 641 1270 q 576 1140 630 1187 q 438 1093 522 1093 q 299 1139 352 1093 q 246 1270 246 1185 l 297 1270 "},"^":{"x_min":61.109375,"x_max":772.21875,"ha":833,"o":"m 61 331 l 380 961 l 452 961 l 772 331 l 693 331 l 415 873 l 141 331 l 61 331 "},"D":{"x_min":100,"x_max":898,"ha":951,"o":"m 100 990 l 442 990 q 782 866 667 990 q 898 496 898 743 q 782 126 898 249 q 442 3 667 3 l 100 3 l 100 990 m 194 81 l 395 81 q 579 103 502 81 q 706 176 656 126 q 780 306 756 226 q 804 496 804 385 q 780 686 804 607 q 706 816 756 766 q 579 889 656 866 q 395 912 502 912 l 194 912 l 194 81 "},"ł":{"x_min":-8.046875,"x_max":265.5625,"ha":257,"o":"m 85 992 l 172 992 l 172 621 l 265 697 l 265 621 l 172 544 l 172 0 l 85 0 l 85 472 l -8 395 l -8 472 l 85 548 l 85 992 "},"ĺ":{"x_min":85,"x_max":339.171875,"ha":257,"o":"m 85 992 l 172 992 l 172 0 l 85 0 l 85 992 m 155 1084 l 85 1084 l 230 1280 l 339 1280 l 155 1084 "},"Ł":{"x_min":-13.890625,"x_max":749.5625,"ha":745,"o":"m 100 992 l 194 992 l 194 490 l 531 723 l 531 645 l 194 413 l 194 80 l 749 80 l 749 -1 l 100 -1 l 100 348 l -13 269 l -13 346 l 100 424 l 100 992 "},"ū":{"x_min":82,"x_max":664,"ha":746,"o":"m 664 0 l 583 0 l 583 129 l 580 129 q 479 17 545 56 q 333 -21 414 -21 q 217 -2 265 -21 q 139 51 169 16 q 95 138 109 87 q 82 251 82 188 l 82 717 l 171 717 l 171 249 q 213 102 171 152 q 360 52 256 52 q 457 76 416 52 q 524 141 498 101 q 563 233 551 181 q 576 340 576 286 l 576 717 l 664 717 l 664 0 m 147 886 l 147 949 l 604 949 l 604 886 l 147 886 "},"w":{"x_min":11.109375,"x_max":1018.0625,"ha":1029,"o":"m 11 717 l 104 717 l 287 103 l 290 103 l 465 717 l 563 717 l 738 103 l 741 103 l 925 717 l 1018 717 l 787 0 l 691 0 l 515 603 l 512 603 l 337 0 l 241 0 l 11 717 "},"$":{"x_min":43,"x_max":732,"ha":772,"o":"m 128 317 q 187 130 128 195 q 357 52 246 65 l 357 464 q 245 495 298 476 q 151 543 191 513 q 88 621 112 574 q 65 742 65 668 q 87 854 65 804 q 150 940 110 904 q 242 994 190 975 q 357 1013 295 1013 l 357 1122 l 411 1122 l 411 1013 q 524 991 470 1013 q 619 930 578 970 q 683 835 660 890 q 706 712 706 779 l 617 712 q 559 877 617 815 q 411 939 502 939 l 411 539 q 528 508 470 527 q 631 458 586 490 q 704 378 676 426 q 732 257 732 329 q 704 136 732 189 q 632 49 677 84 q 529 -3 587 13 q 411 -21 472 -21 l 411 -139 l 357 -139 l 357 -19 q 118 77 194 -4 q 43 317 43 158 l 128 317 m 357 939 q 278 927 315 939 q 213 890 241 915 q 168 826 184 865 q 152 732 152 786 q 169 653 152 683 q 215 603 187 622 q 281 572 244 583 q 357 552 318 561 l 357 939 m 411 52 q 497 63 455 52 q 571 99 538 74 q 624 163 604 124 q 644 255 644 201 q 622 339 644 305 q 568 394 601 372 q 493 429 534 415 q 411 453 451 443 l 411 52 "},"\\":{"x_min":-18.0625,"x_max":480.5625,"ha":463,"o":"m 405 -21 l -18 1013 l 52 1013 l 480 -21 l 405 -21 "},"ņ":{"x_min":82,"x_max":664,"ha":746,"o":"m 82 717 l 169 717 l 169 593 l 172 593 q 207 652 184 625 q 261 698 230 679 q 327 727 291 717 q 401 738 363 738 q 527 718 476 738 q 608 663 577 699 q 651 576 639 628 q 664 461 664 525 l 664 0 l 576 0 l 576 447 q 568 532 576 493 q 538 601 559 572 q 482 647 517 630 q 393 664 446 664 q 299 645 340 664 q 229 594 258 626 q 184 516 200 561 q 169 418 169 470 l 169 0 l 82 0 l 82 717 m 440 -70 l 440 -181 q 422 -240 440 -219 q 381 -272 405 -262 q 321 -282 356 -282 l 321 -243 q 351 -232 341 -239 q 367 -216 361 -226 q 374 -196 373 -207 l 321 -196 l 321 -70 l 440 -70 "},"č":{"x_min":47,"x_max":681.734375,"ha":721,"o":"m 588 492 q 521 618 570 572 q 385 664 472 664 q 276 637 323 664 q 197 568 228 611 q 150 470 166 525 q 134 358 134 415 q 150 246 134 301 q 197 148 166 191 q 276 79 228 105 q 385 52 323 52 q 462 67 426 52 q 526 110 498 83 q 572 174 553 137 q 594 257 590 212 l 681 257 q 585 52 663 126 q 385 -21 506 -21 q 240 9 303 -21 q 134 91 177 40 q 69 211 91 143 q 47 358 47 280 q 69 504 47 434 q 134 625 91 573 q 240 707 177 676 q 385 738 303 738 q 581 676 501 738 q 676 492 660 615 l 588 492 m 177 1016 l 267 1016 l 387 874 l 509 1016 l 590 1016 l 431 820 l 335 820 l 177 1016 "},"’":{"x_min":131,"x_max":255,"ha":387,"o":"m 255 992 l 255 843 q 247 783 255 812 q 224 727 239 753 q 186 682 209 701 q 131 654 163 662 l 131 714 q 161 735 149 719 q 182 769 174 750 q 194 808 190 788 q 196 845 197 828 l 138 845 l 138 992 l 255 992 "},"Ŝ":{"x_min":47,"x_max":825,"ha":875,"o":"m 143 326 q 168 198 143 249 q 236 116 193 147 q 340 73 280 86 q 468 60 400 60 q 553 71 507 60 q 638 106 598 82 q 704 168 678 130 q 731 261 731 206 q 712 333 731 302 q 663 384 693 363 q 596 418 633 405 q 525 439 560 431 l 305 494 q 220 521 260 505 q 149 566 180 538 q 100 634 119 594 q 82 733 82 674 q 95 818 82 769 q 147 910 109 866 q 252 983 186 953 q 423 1013 319 1013 q 563 993 497 1013 q 681 935 630 974 q 760 838 731 896 q 790 704 790 780 l 694 704 q 671 803 694 761 q 611 874 649 845 q 526 917 574 902 q 425 932 478 932 q 331 921 376 932 q 251 888 286 911 q 196 827 217 865 q 176 734 176 790 q 187 674 176 699 q 220 631 199 648 q 268 601 241 613 q 325 583 295 590 l 567 523 q 667 489 620 509 q 749 439 713 469 q 804 366 784 409 q 825 262 825 323 q 821 217 825 245 q 804 158 818 190 q 767 95 791 127 q 700 37 743 63 q 596 -5 658 10 q 446 -21 533 -21 q 284 0 359 -21 q 156 61 209 19 q 75 169 103 103 q 47 326 47 235 l 143 326 m 646 1083 l 556 1083 l 437 1224 l 314 1083 l 234 1083 l 392 1278 l 488 1278 l 646 1083 "},"-":{"x_min":83,"x_max":430,"ha":513,"o":"m 83 342 l 83 423 l 430 423 l 430 342 l 83 342 "},"Q":{"x_min":47,"x_max":982,"ha":1029,"o":"m 926 -64 l 772 53 q 657 -2 721 16 q 515 -21 593 -21 q 310 21 398 -21 q 163 135 222 63 q 76 300 105 206 q 47 496 47 394 q 76 691 47 597 q 163 856 105 785 q 310 970 222 928 q 515 1013 398 1013 q 719 970 631 1013 q 865 856 806 928 q 952 691 923 785 q 982 496 982 597 q 944 278 982 380 q 832 103 907 175 l 973 -5 l 926 -64 m 761 157 q 858 309 828 219 q 888 496 888 400 q 866 654 888 576 q 799 795 844 733 q 683 894 754 857 q 515 932 612 932 q 345 894 416 932 q 229 795 274 857 q 162 654 184 733 q 141 496 141 576 q 162 336 141 414 q 229 196 184 258 q 345 97 274 134 q 515 60 416 60 q 698 108 622 60 l 568 207 l 616 266 l 761 157 "},"M":{"x_min":97,"x_max":1059,"ha":1156,"o":"m 97 992 l 235 992 l 578 122 l 920 992 l 1059 992 l 1059 0 l 965 0 l 965 858 l 962 858 l 623 0 l 534 0 l 193 858 l 191 858 l 191 0 l 97 0 l 97 992 "},"C":{"x_min":53,"x_max":933.109375,"ha":978,"o":"m 824 692 q 783 793 812 748 q 714 869 755 839 q 624 916 673 900 q 520 932 574 932 q 351 894 422 932 q 235 795 280 857 q 168 654 190 733 q 147 496 147 576 q 168 336 147 414 q 235 196 190 258 q 351 97 280 134 q 520 60 422 60 q 644 84 588 60 q 741 153 701 109 q 806 253 781 196 q 838 378 831 311 l 933 378 q 890 212 923 286 q 804 86 856 138 q 679 6 751 34 q 520 -21 608 -21 q 316 21 404 -21 q 169 135 227 63 q 82 300 111 206 q 53 496 53 394 q 82 691 53 597 q 169 856 111 785 q 316 970 227 928 q 520 1013 404 1013 q 658 992 591 1013 q 781 930 726 971 q 872 829 835 889 q 919 692 909 769 l 824 692 "},"œ":{"x_min":50,"x_max":1198.5,"ha":1235,"o":"m 1111 408 q 1096 505 1111 458 q 1054 587 1081 551 q 984 643 1026 622 q 888 664 943 664 q 791 643 833 664 q 721 587 749 622 q 679 505 693 551 q 665 408 665 460 l 1111 408 m 1197 231 q 1086 44 1167 109 q 880 -21 1004 -21 q 795 -9 836 -21 q 720 25 754 2 q 661 82 686 48 q 625 161 636 116 l 622 161 q 527 24 596 69 q 365 -21 458 -21 q 220 10 280 -21 q 122 93 161 41 q 67 214 84 145 q 50 358 50 283 q 69 501 50 433 q 128 622 88 569 q 227 706 168 675 q 369 738 287 738 q 529 694 461 738 q 625 561 597 651 l 627 561 q 726 689 656 640 q 891 738 795 738 q 1124 635 1051 738 q 1198 335 1198 533 l 665 335 q 678 231 665 282 q 718 140 691 180 q 788 76 745 101 q 888 52 830 52 q 1033 99 980 52 q 1109 231 1086 147 l 1197 231 m 368 664 q 255 635 300 664 q 184 559 211 605 q 147 455 158 512 q 137 341 137 397 q 150 236 137 287 q 190 143 162 184 q 261 77 218 102 q 366 52 304 52 q 474 80 433 52 q 538 153 515 108 q 569 254 561 198 q 578 364 578 309 q 569 471 578 418 q 537 568 561 525 q 473 637 514 611 q 368 664 432 664 "},"ě":{"x_min":47,"x_max":687.28125,"ha":721,"o":"m 597 408 q 581 504 597 458 q 535 585 565 550 q 465 642 506 621 q 370 664 423 664 q 274 642 316 664 q 203 585 233 621 q 157 503 174 550 q 134 408 140 457 l 597 408 m 134 335 q 148 236 134 286 q 190 145 162 186 q 262 79 217 105 q 370 52 308 52 q 520 103 466 52 q 595 236 574 154 l 683 236 q 581 46 655 113 q 370 -21 506 -21 q 223 9 284 -21 q 123 92 162 40 q 65 213 84 144 q 47 358 47 282 q 65 497 47 429 q 123 619 84 565 q 223 705 162 672 q 369 738 283 738 q 516 703 455 738 q 615 612 577 668 q 670 482 654 555 q 687 335 687 410 l 134 335 m 166 1016 l 256 1016 l 376 874 l 498 1016 l 578 1016 l 420 820 l 324 820 l 166 1016 "},"Ē":{"x_min":100,"x_max":791.234375,"ha":823,"o":"m 100 992 l 784 992 l 784 911 l 194 911 l 194 553 l 746 553 l 746 472 l 194 472 l 194 80 l 791 80 l 791 -1 l 100 -1 l 100 992 m 217 1150 l 217 1213 l 674 1213 l 674 1150 l 217 1150 "},"ũ":{"x_min":82,"x_max":664,"ha":746,"o":"m 664 0 l 583 0 l 583 129 l 580 129 q 479 17 545 56 q 333 -21 414 -21 q 217 -2 265 -21 q 139 51 169 16 q 95 138 109 87 q 82 251 82 188 l 82 717 l 171 717 l 171 249 q 213 102 171 152 q 360 52 256 52 q 457 76 416 52 q 524 141 498 101 q 563 233 551 181 q 576 340 576 286 l 576 717 l 664 717 l 664 0 m 591 987 q 578 939 587 963 q 554 897 569 916 q 518 866 540 878 q 470 855 497 855 q 416 864 443 855 q 366 886 390 874 q 321 908 343 898 q 279 918 300 918 q 234 900 251 918 q 209 848 218 882 l 155 848 q 168 896 158 872 q 193 938 177 920 q 230 969 208 957 q 279 981 251 981 q 334 971 309 981 q 383 949 359 961 q 427 928 407 936 q 466 920 447 920 q 514 939 498 920 q 539 987 530 958 l 591 987 "},"!":{"x_min":110,"x_max":227,"ha":335,"o":"m 110 0 l 110 147 l 227 147 l 227 0 l 110 0 m 131 695 l 131 992 l 205 992 l 205 695 l 205 247 l 131 247 l 131 695 "},"ŭ":{"x_min":82,"x_max":664,"ha":746,"o":"m 664 0 l 583 0 l 583 129 l 580 129 q 479 17 545 56 q 333 -21 413 -21 q 217 -2 265 -21 q 139 51 169 16 q 95 138 109 87 q 82 251 82 188 l 82 717 l 171 717 l 171 249 q 213 102 171 152 q 360 52 256 52 q 457 76 416 52 q 524 141 498 101 q 563 233 551 181 q 576 340 576 286 l 576 717 l 664 717 l 664 0 m 232 1006 q 245 956 232 978 q 278 920 258 935 q 322 898 297 905 q 374 892 347 892 q 426 899 400 892 q 471 921 451 907 q 504 957 491 936 q 522 1006 518 978 l 576 1006 q 511 876 565 923 q 373 829 457 829 q 234 874 287 829 q 181 1006 181 920 l 232 1006 "},"Ĵ":{"x_min":29,"x_max":748.171875,"ha":694,"o":"m 500 992 l 594 992 l 594 276 q 578 145 594 201 q 529 51 563 88 q 440 -2 495 15 q 305 -21 385 -21 q 165 7 219 -21 q 81 83 112 35 q 40 192 51 131 q 29 318 29 252 l 126 318 q 126 241 126 286 q 143 157 126 197 q 199 88 161 116 q 312 60 238 60 q 404 74 368 60 q 462 120 441 89 q 491 200 483 151 q 500 316 500 248 l 500 992 m 748 1082 l 657 1082 l 538 1223 l 416 1082 l 335 1082 l 494 1278 l 589 1278 l 748 1082 "},"{":{"x_min":115,"x_max":407,"ha":463,"o":"m 337 -265 q 247 -217 279 -265 q 215 -91 215 -170 l 215 114 q 210 196 215 156 q 195 268 206 236 q 164 318 184 299 q 115 337 145 337 l 115 410 q 164 429 145 410 q 195 479 184 448 q 210 550 206 510 q 215 632 215 591 l 215 839 q 247 966 215 919 q 337 1013 279 1013 l 407 1013 l 407 940 l 379 940 q 343 928 358 940 q 319 896 328 916 q 306 850 310 876 q 302 796 302 824 l 302 601 q 289 503 302 544 q 260 434 277 462 q 228 393 244 407 q 205 375 212 380 l 205 373 q 228 355 212 368 q 260 314 244 341 q 289 245 277 286 q 302 147 302 204 l 302 -48 q 306 -102 302 -75 q 319 -148 310 -128 q 343 -179 328 -167 q 379 -191 358 -191 l 407 -191 l 407 -265 l 337 -265 "},"X":{"x_min":-16.671875,"x_max":811.109375,"ha":797,"o":"m 4 992 l 115 992 l 395 576 l 686 992 l 791 992 l 452 508 l 811 0 l 697 0 l 395 437 l 90 0 l -16 0 l 340 511 l 4 992 "},"#":{"x_min":49,"x_max":730,"ha":773,"o":"m 310 589 l 279 373 l 475 373 l 506 589 l 310 589 m 691 310 l 536 310 l 493 0 l 424 0 l 467 310 l 271 310 l 228 0 l 158 0 l 201 310 l 49 310 l 49 373 l 210 373 l 240 589 l 88 589 l 88 652 l 249 652 l 292 960 l 361 960 l 318 652 l 514 652 l 557 960 l 627 960 l 584 652 l 730 652 l 730 589 l 575 589 l 545 373 l 691 373 l 691 310 "},"":{"x_min":0,"x_max":711,"ha":711,"o":"m 308 163 l 308 256 l 386 256 l 386 163 l 308 163 m 312 325 l 310 348 q 327 461 310 425 q 391 543 345 497 q 448 609 436 586 q 461 658 461 632 q 429 742 461 708 q 355 777 398 777 q 280 746 312 777 q 241 644 249 715 l 171 656 q 233 800 181 754 q 359 846 284 846 q 482 796 433 846 q 532 664 532 746 q 514 582 532 619 q 444 497 497 546 q 384 425 392 451 q 377 325 377 398 l 312 325 m 642 69 l 642 927 l 69 927 l 69 69 l 642 69 m 711 998 l 711 0 l 0 0 l 0 998 l 711 998 "},"Ĳ":{"x_min":107,"x_max":910,"ha":1010,"o":"m 107 992 l 201 992 l 201 0 l 107 0 l 107 992 m 816 992 l 910 992 l 910 276 q 894 145 910 201 q 845 51 879 88 q 756 -2 811 15 q 621 -21 701 -21 q 481 7 535 -21 q 397 83 428 35 q 356 192 367 131 q 345 318 345 252 l 442 318 q 442 241 442 286 q 459 157 442 197 q 515 88 477 116 q 628 60 554 60 q 720 74 684 60 q 778 120 757 89 q 807 200 799 151 q 816 316 816 248 l 816 992 "},"Ė":{"x_min":100,"x_max":791.234375,"ha":823,"o":"m 100 992 l 784 992 l 784 911 l 194 911 l 194 553 l 746 553 l 746 472 l 194 472 l 194 80 l 791 80 l 791 -1 l 100 -1 l 100 992 m 396 1111 l 396 1251 l 490 1251 l 490 1111 l 396 1111 "},"đ":{"x_min":53,"x_max":831,"ha":831,"o":"m 714 0 l 633 0 l 633 136 l 630 136 q 589 72 616 101 q 527 22 562 42 q 453 -9 493 1 q 375 -21 414 -21 q 232 9 293 -21 q 132 92 172 40 q 72 213 91 144 q 53 358 53 282 q 72 503 53 434 q 132 624 91 572 q 232 707 172 676 q 375 738 293 738 q 453 727 415 738 q 525 697 491 717 q 584 649 558 678 q 623 581 609 619 l 626 581 l 626 811 l 387 811 l 387 874 l 626 874 l 626 992 l 714 992 l 714 874 l 831 874 l 831 811 l 714 811 l 714 0 m 140 358 q 153 247 140 302 q 195 149 166 193 q 268 79 223 106 q 375 52 312 52 q 492 79 444 52 q 570 149 540 106 q 613 247 600 193 q 626 358 626 302 q 613 469 626 414 q 570 567 600 523 q 492 637 540 610 q 375 664 444 664 q 268 637 312 664 q 195 567 223 610 q 153 469 166 523 q 140 358 140 414 "},"ċ":{"x_min":47,"x_max":681.390625,"ha":720,"o":"m 588 492 q 521 618 570 572 q 385 664 471 664 q 276 637 323 664 q 197 568 228 611 q 150 470 166 525 q 134 358 134 415 q 150 246 134 301 q 197 148 166 191 q 276 79 228 105 q 385 52 323 52 q 462 67 425 52 q 525 110 498 83 q 571 174 553 137 q 593 257 589 212 l 681 257 q 584 52 663 126 q 385 -21 506 -21 q 240 9 303 -21 q 134 91 177 40 q 69 211 91 143 q 47 358 47 280 q 69 504 47 434 q 134 625 91 573 q 240 707 177 676 q 385 738 303 738 q 580 676 500 738 q 675 492 660 615 l 588 492 m 336 848 l 336 988 l 430 988 l 430 848 l 336 848 "},"Ā":{"x_min":-9.4375,"x_max":885.046875,"ha":875,"o":"m 240 389 l 630 389 l 439 897 l 240 389 m 390 992 l 496 992 l 885 0 l 783 0 l 662 308 l 211 308 l 91 0 l -9 0 l 390 992 m 210 1150 l 210 1213 l 667 1213 l 667 1150 l 210 1150 "},")":{"x_min":-1.78125,"x_max":263.5,"ha":334,"o":"m 67 1014 q 150 862 113 937 q 212 710 187 787 q 250 551 237 633 q 263 378 263 469 q 211 38 263 200 q 67 -265 159 -123 l -1 -265 q 133 54 91 -116 q 176 410 176 225 q 162 565 176 485 q 126 723 149 645 q 70 874 103 801 q -1 1014 37 948 l 67 1014 "},"Ŀ":{"x_min":100,"x_max":749.5625,"ha":745,"o":"m 100 992 l 194 992 l 194 80 l 749 80 l 749 -1 l 100 -1 l 100 992 m 400 578 l 400 718 l 494 718 l 494 578 l 400 578 "},"}":{"x_min":56,"x_max":348,"ha":463,"o":"m 125 1013 q 215 966 183 1013 q 247 839 247 919 l 247 634 q 251 552 247 592 q 267 480 255 512 q 297 430 278 449 q 348 412 317 412 l 348 338 q 297 319 317 338 q 267 269 278 300 q 251 197 255 238 q 247 115 247 157 l 247 -91 q 215 -217 247 -170 q 125 -265 183 -265 l 56 -265 l 56 -191 l 83 -191 q 119 -179 104 -191 q 142 -148 133 -167 q 155 -102 151 -128 q 160 -48 160 -75 l 160 147 q 172 245 160 204 q 201 314 184 286 q 234 355 218 341 q 257 373 250 368 l 257 375 q 234 393 250 380 q 201 434 218 407 q 172 503 184 462 q 160 600 160 544 l 160 796 q 155 850 160 824 q 142 896 151 876 q 119 928 133 916 q 83 940 104 940 l 56 940 l 56 1013 l 125 1013 "},"‰":{"x_min":90,"x_max":1458,"ha":1543,"o":"m 297 918 q 229 902 255 918 q 188 862 202 887 q 168 807 173 837 q 164 746 164 776 q 168 684 164 715 q 188 629 173 654 q 229 589 202 604 q 297 574 255 574 q 364 589 338 574 q 404 629 389 604 q 424 684 418 654 q 430 746 430 715 q 424 807 430 776 q 404 862 418 837 q 364 902 389 887 q 297 918 338 918 m 296 981 q 392 962 352 981 q 456 913 431 944 q 492 839 481 882 q 504 746 504 796 q 492 652 504 695 q 456 578 481 609 q 392 529 431 547 q 296 511 352 511 q 201 529 241 511 q 137 578 162 547 q 101 652 112 609 q 90 746 90 695 q 101 839 90 796 q 137 913 112 882 q 201 962 162 944 q 296 981 241 981 m 1251 386 q 1183 370 1209 386 q 1142 330 1156 355 q 1122 275 1127 305 q 1118 214 1118 244 q 1122 152 1118 183 q 1142 97 1127 122 q 1183 57 1156 72 q 1251 42 1209 42 q 1318 57 1292 42 q 1358 97 1343 72 q 1378 152 1372 122 q 1384 214 1384 183 q 1378 275 1384 244 q 1358 330 1372 305 q 1318 370 1343 355 q 1251 386 1292 386 m 1251 449 q 1346 430 1306 449 q 1410 381 1385 412 q 1446 307 1435 350 q 1458 213 1458 264 q 1446 120 1458 163 q 1410 46 1435 77 q 1346 -2 1385 15 q 1251 -21 1306 -21 q 1155 -2 1195 -21 q 1091 46 1116 15 q 1055 120 1066 77 q 1044 213 1044 163 q 1055 307 1044 264 q 1091 381 1066 350 q 1155 430 1116 412 q 1251 449 1195 449 m 759 386 q 691 370 717 386 q 650 330 664 355 q 630 275 635 305 q 626 214 626 244 q 630 152 626 183 q 650 97 635 122 q 691 57 664 72 q 759 42 717 42 q 826 57 801 42 q 867 97 852 72 q 887 152 881 122 q 893 214 893 183 q 887 275 893 244 q 867 330 881 305 q 826 370 852 355 q 759 386 801 386 m 759 449 q 854 430 815 449 q 919 381 894 412 q 955 307 944 350 q 967 213 967 264 q 955 120 967 163 q 919 46 944 77 q 854 -2 894 15 q 759 -21 815 -21 q 664 -2 703 -21 q 599 46 624 15 q 563 120 574 77 q 552 213 552 163 q 563 307 552 264 q 599 381 574 350 q 664 430 624 412 q 759 449 703 449 m 808 1007 l 873 1007 l 245 -47 l 179 -47 l 808 1007 "},"ř":{"x_min":49.671875,"x_max":462.171875,"ha":437,"o":"m 83 717 l 163 717 l 163 549 l 166 549 q 269 681 199 635 q 437 728 339 728 l 437 640 q 328 621 377 640 q 244 568 280 602 q 189 485 209 534 q 170 382 170 437 l 170 0 l 83 0 l 83 717 m 49 1015 l 139 1015 l 259 874 l 381 1015 l 462 1015 l 303 820 l 208 820 l 49 1015 "},"a":{"x_min":44,"x_max":708,"ha":721,"o":"m 77 497 q 157 680 77 623 q 362 738 237 738 q 457 728 410 738 q 543 694 505 719 q 604 624 580 669 q 628 506 628 579 l 628 126 q 680 73 628 73 q 708 79 694 73 l 708 5 q 680 1 692 2 q 651 0 669 0 q 597 9 617 0 q 566 34 577 18 q 552 74 555 51 q 548 125 548 97 l 545 125 q 497 63 522 90 q 443 17 473 36 q 374 -11 413 -1 q 284 -21 335 -21 q 190 -8 234 -21 q 114 29 146 4 q 62 95 81 55 q 44 188 44 134 q 77 306 44 263 q 165 371 110 348 q 289 402 220 393 q 428 419 357 411 q 476 427 455 422 q 512 441 498 432 q 534 469 526 451 q 541 516 541 487 q 527 589 541 561 q 486 635 512 618 q 426 658 460 651 q 353 664 392 664 q 216 624 270 664 q 163 497 163 584 l 77 497 m 541 392 l 538 392 q 506 369 530 376 q 465 360 483 362 q 350 342 409 350 q 242 319 291 334 q 162 275 193 304 q 131 194 131 247 q 144 135 131 161 q 180 90 157 109 q 231 62 202 72 q 291 52 260 52 q 387 67 341 52 q 467 112 433 83 q 521 183 501 141 q 541 277 541 225 l 541 392 "},"—":{"x_min":181,"x_max":1209,"ha":1390,"o":"m 181 342 l 181 423 l 1209 423 l 1209 342 l 181 342 "},"Ę":{"x_min":100,"x_max":791.234375,"ha":823,"o":"m 727 -1 q 665 -55 690 -31 q 630 -99 641 -80 q 616 -132 619 -119 q 614 -163 614 -145 q 632 -213 614 -197 q 674 -229 651 -229 q 720 -211 701 -229 q 750 -172 739 -194 l 791 -190 q 733 -262 767 -242 q 655 -283 699 -283 q 561 -251 594 -283 q 529 -169 529 -219 q 533 -142 529 -157 q 549 -107 537 -126 q 592 -60 562 -88 q 674 -1 622 -32 l 100 -1 l 100 992 l 784 992 l 784 911 l 194 911 l 194 553 l 746 553 l 746 472 l 194 472 l 194 80 l 791 80 l 791 -1 l 727 -1 "},"=":{"x_min":68,"x_max":767,"ha":834,"o":"m 767 178 l 68 178 l 68 251 l 767 251 l 767 178 m 767 452 l 68 452 l 68 525 l 767 525 l 767 452 "},"N":{"x_min":99,"x_max":879,"ha":978,"o":"m 99 992 l 204 992 l 782 153 l 785 153 l 785 992 l 879 992 l 879 0 l 773 0 l 195 839 l 193 839 l 193 0 l 99 0 l 99 992 "},"⁄":{"x_min":-230.5625,"x_max":463.890625,"ha":232,"o":"m 398 1008 l 463 1008 l -163 -47 l -230 -47 l 398 1008 "},"2":{"x_min":50,"x_max":690,"ha":772,"o":"m 690 0 l 50 0 q 74 128 50 72 q 137 228 98 183 q 224 309 175 272 q 324 380 273 346 q 426 449 376 414 q 517 525 476 483 q 578 608 558 565 q 598 708 598 650 q 581 792 598 756 q 533 855 563 829 q 464 894 504 880 q 380 907 424 907 q 278 885 320 907 q 209 825 235 862 q 171 739 183 788 q 159 637 159 691 l 72 637 q 90 775 72 711 q 148 883 109 838 q 246 955 187 929 q 384 981 305 981 q 503 963 448 981 q 598 911 558 946 q 662 826 638 876 q 686 707 686 775 q 665 596 686 646 q 611 504 645 546 q 533 427 577 463 q 441 361 488 392 q 358 309 405 338 q 268 246 312 281 q 191 170 224 211 q 149 81 158 129 l 690 81 l 690 0 "},"Z":{"x_min":7,"x_max":779,"ha":797,"o":"m 51 992 l 765 992 l 765 908 l 112 80 l 779 80 l 779 -1 l 7 -1 l 7 82 l 659 911 l 51 911 l 51 992 "},"u":{"x_min":82,"x_max":664,"ha":746,"o":"m 664 0 l 583 0 l 583 129 l 580 129 q 479 17 545 56 q 333 -21 414 -21 q 217 -2 265 -21 q 139 51 169 16 q 95 138 109 87 q 82 251 82 188 l 82 717 l 171 717 l 171 249 q 213 102 171 152 q 360 52 256 52 q 457 76 416 52 q 524 141 498 101 q 563 233 551 181 q 576 340 576 286 l 576 717 l 664 717 l 664 0 "},"k":{"x_min":83,"x_max":705.234375,"ha":694,"o":"m 83 992 l 170 992 l 170 369 l 567 717 l 684 717 l 378 451 l 705 0 l 595 0 l 312 390 l 170 272 l 170 0 l 83 0 l 83 992 "},"Ÿ":{"x_min":-14.0625,"x_max":862.0625,"ha":848,"o":"m 376 408 l -14 992 l 98 992 l 424 489 l 749 992 l 862 992 l 470 408 l 470 0 l 376 0 l 376 408 m 254 1112 l 254 1252 l 348 1252 l 348 1112 l 254 1112 m 500 1112 l 500 1252 l 594 1252 l 594 1112 l 500 1112 "},"ų":{"x_min":82,"x_max":700.109375,"ha":746,"o":"m 636 0 q 574 -54 598 -30 q 538 -98 549 -79 q 524 -131 527 -118 q 522 -162 522 -144 q 540 -212 522 -196 q 583 -228 559 -228 q 629 -210 609 -228 q 659 -170 648 -193 l 700 -189 q 642 -261 676 -241 q 563 -282 608 -282 q 469 -250 502 -282 q 437 -168 437 -218 q 441 -140 437 -156 q 457 -106 445 -124 q 500 -59 470 -87 q 583 0 530 -31 l 583 129 l 580 129 q 479 18 545 57 q 333 -20 413 -20 q 217 -1 265 -20 q 139 52 169 16 q 95 138 109 87 q 82 251 82 189 l 82 717 l 171 717 l 171 249 q 213 102 171 152 q 360 53 256 53 q 457 77 416 53 q 524 141 498 101 q 563 234 551 182 q 576 340 576 286 l 576 717 l 664 717 l 664 0 l 636 0 "},"€":{"x_min":20.890625,"x_max":773.21875,"ha":772,"o":"m 735 800 q 513 910 644 910 q 305 816 385 910 q 209 603 234 734 l 671 603 l 646 540 l 201 540 q 197 480 197 504 q 197 469 197 475 q 198 459 197 464 l 620 459 l 594 396 l 202 396 q 290 161 221 250 q 509 57 373 57 q 642 88 582 57 q 751 176 689 115 l 751 69 q 506 -21 644 -21 q 226 102 333 -21 q 112 396 133 212 l 20 396 l 47 459 l 108 459 q 107 471 107 464 q 107 486 107 478 q 107 510 107 497 q 109 540 107 523 l 20 540 l 45 603 l 116 603 q 244 875 148 775 q 515 989 349 989 q 773 882 687 989 l 735 800 "},"Ŭ":{"x_min":90,"x_max":861,"ha":951,"o":"m 90 992 l 184 992 l 184 378 q 203 231 184 291 q 260 132 222 171 q 352 77 298 94 q 474 60 406 60 q 597 77 542 60 q 690 132 652 94 q 747 231 728 171 q 767 378 767 291 l 767 992 l 861 992 l 861 356 q 839 211 861 280 q 771 91 817 142 q 651 9 724 40 q 474 -21 579 -21 q 299 9 372 -21 q 179 91 226 40 q 111 211 133 142 q 90 356 90 280 l 90 992 m 327 1270 q 340 1220 327 1242 q 373 1184 353 1199 q 417 1162 392 1169 q 469 1156 443 1156 q 521 1163 496 1156 q 566 1185 546 1171 q 600 1221 587 1200 q 618 1270 613 1242 l 672 1270 q 606 1140 661 1187 q 468 1093 552 1093 q 329 1138 382 1093 q 276 1270 276 1184 l 327 1270 "},"Ů":{"x_min":90,"x_max":861,"ha":951,"o":"m 90 992 l 184 992 l 184 378 q 203 231 184 291 q 260 132 222 171 q 352 77 298 94 q 474 60 406 60 q 597 77 542 60 q 690 132 652 94 q 747 231 728 171 q 767 378 767 291 l 767 992 l 861 992 l 861 356 q 839 211 861 280 q 771 91 817 142 q 651 9 724 40 q 474 -21 579 -21 q 299 9 372 -21 q 179 91 226 40 q 111 211 133 142 q 90 356 90 280 l 90 992 m 377 1194 q 404 1127 377 1154 q 471 1100 431 1100 q 538 1127 511 1100 q 566 1194 566 1154 q 538 1262 566 1235 q 471 1290 511 1290 q 404 1262 431 1290 q 377 1194 377 1235 m 323 1194 q 334 1252 323 1225 q 366 1300 346 1279 q 413 1332 386 1320 q 471 1344 440 1344 q 529 1332 502 1344 q 576 1300 556 1320 q 608 1252 596 1279 q 620 1194 620 1225 q 608 1137 620 1164 q 576 1089 596 1110 q 529 1057 556 1069 q 471 1046 502 1046 q 413 1057 440 1046 q 366 1089 386 1069 q 334 1137 346 1110 q 323 1194 323 1164 "},"ĝ":{"x_min":47,"x_max":688.5,"ha":772,"o":"m 688 58 q 671 -85 688 -22 q 616 -194 653 -149 q 517 -262 578 -238 q 369 -286 457 -286 q 263 -273 314 -286 q 170 -234 211 -260 q 102 -167 129 -208 q 75 -69 75 -126 l 160 -69 q 187 -136 167 -109 q 236 -180 208 -163 q 299 -204 265 -197 q 370 -212 334 -212 q 546 -142 492 -212 q 601 58 601 -73 l 601 156 l 598 156 q 507 48 567 88 q 370 8 448 8 q 223 36 284 8 q 122 115 162 65 q 65 232 83 165 q 47 376 47 300 q 68 516 47 450 q 131 631 90 582 q 232 709 171 681 q 370 738 292 738 q 510 695 449 738 q 598 594 571 653 l 601 594 l 601 717 l 688 717 l 688 58 m 370 82 q 470 106 427 82 q 542 170 513 130 q 586 261 571 209 q 601 366 601 312 q 588 472 601 419 q 548 568 576 525 q 476 637 520 611 q 370 664 433 664 q 263 638 308 664 q 190 571 219 612 q 147 476 160 529 q 134 366 134 422 q 148 261 134 312 q 191 170 162 209 q 265 106 220 130 q 370 82 309 82 m 609 819 l 519 819 l 399 960 l 277 819 l 196 819 l 355 1014 l 451 1014 l 609 819 "},"Ş":{"x_min":47,"x_max":825,"ha":875,"o":"m 143 327 q 168 199 143 250 q 236 117 193 147 q 340 73 280 86 q 468 60 400 60 q 553 71 507 60 q 638 106 598 82 q 704 169 678 130 q 731 261 731 207 q 712 333 731 303 q 663 385 693 364 q 597 419 633 406 q 526 440 561 432 l 305 495 q 220 522 260 506 q 149 567 180 539 q 100 635 119 595 q 82 734 82 675 q 95 819 82 770 q 147 911 109 867 q 252 984 186 954 q 423 1014 319 1014 q 563 994 497 1014 q 681 936 630 975 q 760 839 731 897 q 790 705 790 781 l 694 705 q 671 804 694 762 q 611 875 649 846 q 526 918 574 903 q 425 933 478 933 q 331 922 376 933 q 251 889 286 912 q 196 828 217 866 q 176 735 176 791 q 187 675 176 700 q 220 632 199 649 q 268 602 241 614 q 326 584 295 591 l 568 524 q 667 490 621 510 q 749 440 714 470 q 804 367 784 410 q 825 263 825 324 q 821 218 825 246 q 804 159 818 190 q 767 96 791 128 q 700 37 742 64 q 595 -3 658 11 q 449 -21 534 -21 l 405 -75 q 440 -71 424 -71 q 475 -73 456 -71 q 514 -84 493 -75 q 550 -112 534 -93 q 567 -163 567 -131 q 553 -217 567 -195 q 516 -253 539 -239 q 467 -275 494 -268 q 413 -282 440 -282 q 347 -275 380 -282 q 283 -252 313 -268 l 302 -208 q 351 -221 320 -215 q 412 -228 381 -228 q 463 -214 441 -228 q 486 -168 486 -200 q 467 -128 486 -142 q 426 -115 449 -115 q 355 -126 377 -115 l 333 -105 l 401 -17 q 283 -2 338 -17 q 156 60 208 17 q 75 169 103 102 q 47 327 47 235 l 143 327 "},"s":{"x_min":43,"x_max":625,"ha":668,"o":"m 511 507 q 495 577 511 547 q 454 626 480 607 q 395 655 429 646 q 324 664 362 664 q 265 658 295 664 q 211 637 236 651 q 170 598 186 622 q 155 540 155 575 q 170 491 155 511 q 206 457 184 470 q 255 434 229 443 q 304 419 281 425 l 420 393 q 495 372 458 387 q 560 334 531 358 q 606 276 588 311 q 625 194 625 241 q 598 95 625 136 q 531 28 572 54 q 438 -9 490 2 q 337 -21 387 -21 q 132 39 211 -21 q 43 232 54 99 l 133 232 q 192 97 133 143 q 340 52 251 52 q 405 59 370 52 q 470 83 440 66 q 518 125 499 99 q 537 188 537 151 q 524 241 537 219 q 488 278 511 263 q 438 302 466 293 q 380 319 409 312 l 267 344 q 188 370 224 355 q 125 406 152 384 q 83 459 98 427 q 68 536 68 490 q 92 629 68 590 q 155 692 116 668 q 242 726 194 715 q 338 738 290 738 q 439 724 392 738 q 521 680 485 710 q 577 608 556 651 q 598 507 598 565 l 511 507 "},"B":{"x_min":100,"x_max":875,"ha":926,"o":"m 194 557 l 519 557 q 617 570 576 557 q 687 606 659 583 q 729 659 715 629 q 743 724 743 690 q 519 911 743 911 l 194 911 l 194 557 m 100 992 l 519 992 q 639 980 581 992 q 740 939 696 968 q 810 864 784 911 q 837 748 837 818 q 824 672 837 709 q 789 606 812 636 q 735 555 766 576 q 665 526 704 534 l 665 523 q 818 444 761 510 q 875 281 875 378 q 864 197 875 245 q 818 104 854 149 q 711 29 781 60 q 519 -1 640 -1 l 100 -1 l 100 992 m 194 80 l 519 80 q 619 89 572 80 q 703 121 666 98 q 760 184 739 145 q 781 284 781 224 q 712 428 781 380 q 519 476 644 476 l 194 476 l 194 80 "},"…":{"x_min":174,"x_max":1215,"ha":1389,"o":"m 1098 0 l 1098 147 l 1215 147 l 1215 0 l 1098 0 m 636 0 l 636 147 l 753 147 l 753 0 l 636 0 m 174 0 l 174 147 l 291 147 l 291 0 l 174 0 "},"Ű":{"x_min":90,"x_max":861,"ha":951,"o":"m 90 992 l 184 992 l 184 378 q 203 231 184 291 q 260 132 222 171 q 352 77 298 94 q 474 60 406 60 q 597 77 542 60 q 690 132 652 94 q 747 231 728 171 q 767 378 767 291 l 767 992 l 861 992 l 861 356 q 839 211 861 280 q 771 91 817 142 q 651 9 724 40 q 474 -21 579 -21 q 299 9 372 -21 q 179 91 226 40 q 111 211 133 142 q 90 356 90 280 l 90 992 m 537 1084 l 677 1280 l 783 1280 l 608 1084 l 537 1084 m 320 1084 l 460 1280 l 566 1280 l 391 1084 l 320 1084 "},"ē":{"x_min":47,"x_max":687.28125,"ha":721,"o":"m 597 408 q 581 504 597 458 q 535 585 565 550 q 465 642 506 621 q 370 664 423 664 q 274 642 316 664 q 203 585 233 621 q 157 503 174 550 q 134 408 140 457 l 597 408 m 134 335 q 148 236 134 286 q 190 145 162 186 q 262 79 217 105 q 370 52 308 52 q 520 103 466 52 q 595 236 574 154 l 683 236 q 581 46 655 113 q 370 -21 506 -21 q 223 9 284 -21 q 123 92 162 40 q 65 213 84 144 q 47 358 47 282 q 65 497 47 429 q 123 619 84 565 q 223 705 162 672 q 369 738 283 738 q 516 703 455 738 q 615 612 577 668 q 670 482 654 555 q 687 335 687 410 l 134 335 m 141 886 l 141 949 l 598 949 l 598 886 l 141 886 "},"?":{"x_min":75,"x_max":672,"ha":746,"o":"m 321 147 l 438 147 l 438 0 l 321 0 l 321 147 m 75 687 q 96 820 75 760 q 157 923 118 881 q 256 989 197 965 q 390 1013 315 1013 q 499 995 448 1013 q 588 944 549 978 q 649 863 627 911 q 672 756 672 815 q 637 624 672 678 q 551 519 603 570 q 482 451 507 475 q 444 403 457 428 q 426 346 430 379 q 422 248 422 312 l 333 248 q 341 356 333 312 q 369 434 349 400 q 419 500 388 468 q 494 572 450 532 q 558 653 533 608 q 584 751 584 697 q 568 828 584 793 q 525 887 552 862 q 462 925 498 911 q 385 939 426 939 q 286 919 329 939 q 216 866 244 900 q 174 786 188 832 q 161 687 161 741 l 75 687 "},"H":{"x_min":100,"x_max":878,"ha":978,"o":"m 100 992 l 194 992 l 194 562 l 784 562 l 784 992 l 878 992 l 878 0 l 784 0 l 784 481 l 194 481 l 194 0 l 100 0 l 100 992 "},"Ņ":{"x_min":99,"x_max":879,"ha":978,"o":"m 99 992 l 204 992 l 782 153 l 785 153 l 785 992 l 879 992 l 879 0 l 773 0 l 195 839 l 193 839 l 193 0 l 99 0 l 99 992 m 540 -70 l 540 -181 q 522 -240 540 -219 q 481 -272 505 -262 q 421 -282 456 -282 l 421 -243 q 451 -232 441 -239 q 467 -216 461 -226 q 474 -196 473 -207 l 421 -196 l 421 -70 l 540 -70 "},"c":{"x_min":47,"x_max":681.734375,"ha":721,"o":"m 588 492 q 521 618 570 572 q 385 664 472 664 q 276 637 323 664 q 197 568 228 611 q 150 470 166 525 q 134 358 134 415 q 150 246 134 301 q 197 148 166 191 q 276 79 228 105 q 385 52 323 52 q 462 67 426 52 q 526 110 498 83 q 572 174 553 137 q 594 257 590 212 l 681 257 q 585 52 663 126 q 385 -21 506 -21 q 240 9 303 -21 q 134 91 177 40 q 69 211 91 143 q 47 358 47 280 q 69 504 47 434 q 134 625 91 573 q 240 707 177 676 q 385 738 303 738 q 581 676 501 738 q 676 492 660 615 l 588 492 "},"Ī":{"x_min":-74,"x_max":383,"ha":308,"o":"m 107 992 l 201 992 l 201 0 l 107 0 l 107 992 m -74 1151 l -74 1214 l 383 1214 l 383 1151 l -74 1151 "},"•":{"x_min":100,"x_max":596,"ha":695,"o":"m 100 495 q 119 592 100 547 q 172 670 138 637 q 250 723 205 704 q 347 743 295 743 q 443 723 398 743 q 523 670 489 704 q 576 592 557 637 q 596 495 596 547 q 576 399 596 444 q 523 319 557 353 q 443 266 489 285 q 347 247 398 247 q 250 266 295 247 q 172 319 205 285 q 119 399 138 353 q 100 495 100 444 "},"(":{"x_min":71,"x_max":336.28125,"ha":335,"o":"m 266 -265 q 184 -113 221 -188 q 122 38 147 -38 q 84 197 97 115 q 71 370 71 279 q 123 710 71 548 q 266 1014 175 872 l 336 1014 q 200 694 243 865 q 158 338 158 523 q 171 183 158 263 q 207 25 184 103 q 263 -126 230 -52 q 336 -265 296 -201 l 266 -265 "},"Ĥ":{"x_min":100,"x_max":878,"ha":978,"o":"m 100 992 l 194 992 l 194 562 l 784 562 l 784 992 l 878 992 l 878 0 l 784 0 l 784 481 l 194 481 l 194 0 l 100 0 l 100 992 m 697 1083 l 607 1083 l 487 1224 l 365 1083 l 284 1083 l 443 1279 l 539 1279 l 697 1083 "},"U":{"x_min":90,"x_max":861,"ha":951,"o":"m 90 992 l 184 992 l 184 378 q 203 231 184 291 q 260 132 222 171 q 352 77 298 94 q 474 60 406 60 q 597 77 542 60 q 690 132 652 94 q 747 231 728 171 q 767 378 767 291 l 767 992 l 861 992 l 861 356 q 839 211 861 280 q 771 91 817 142 q 651 9 724 40 q 474 -21 579 -21 q 299 9 372 -21 q 179 91 226 40 q 111 211 133 142 q 90 356 90 280 l 90 992 "},"◊":{"x_min":123.609375,"x_max":700,"ha":824,"o":"m 411 932 l 229 494 l 411 56 l 594 494 l 411 932 m 461 -49 l 361 -49 l 123 494 l 361 1038 l 461 1038 l 700 494 l 461 -49 "},"F":{"x_min":100,"x_max":728.734375,"ha":745,"o":"m 100 992 l 728 992 l 728 911 l 194 911 l 194 553 l 669 553 l 669 472 l 194 472 l 194 0 l 100 0 l 100 992 "},"Ħ":{"x_min":100,"x_max":878,"ha":978,"o":"m 100 992 l 194 992 l 194 717 l 784 717 l 784 992 l 878 992 l 878 0 l 784 0 l 784 467 l 194 467 l 194 0 l 100 0 l 100 992 m 194 654 l 194 548 l 784 548 l 784 654 l 194 654 "},"ĵ":{"x_min":-79.5,"x_max":332.609375,"ha":256,"o":"m 84 718 l 171 718 l 171 -66 q 165 -142 171 -106 q 141 -205 159 -178 q 94 -249 124 -233 q 18 -265 64 -265 q -11 -263 3 -265 q -42 -262 -26 -262 l -42 -189 q -18 -193 -30 -193 q 5 -191 -6 -193 q 70 -161 56 -191 q 84 -87 84 -131 l 84 718 m 332 819 l 242 819 l 122 960 l 0 819 l -79 819 l 78 1015 l 174 1015 l 332 819 "},"ā":{"x_min":44,"x_max":708,"ha":721,"o":"m 77 496 q 157 680 77 623 q 362 738 237 738 q 457 728 410 738 q 543 694 505 719 q 604 624 580 669 q 628 506 628 579 l 628 126 q 680 73 628 73 q 708 79 694 73 l 708 5 q 680 1 692 2 q 651 0 669 0 q 597 9 617 0 q 566 34 577 18 q 552 74 555 51 q 548 125 548 97 l 545 125 q 497 63 522 90 q 443 17 473 36 q 374 -11 413 -1 q 284 -21 335 -21 q 190 -8 234 -21 q 114 29 146 4 q 62 95 81 55 q 44 188 44 134 q 77 306 44 263 q 165 371 110 348 q 289 402 220 393 q 428 419 357 411 q 476 427 455 422 q 512 441 498 432 q 534 469 526 451 q 541 516 541 487 q 527 589 541 561 q 486 635 512 618 q 426 658 460 651 q 353 664 392 664 q 216 624 270 664 q 163 496 163 584 l 77 496 m 541 392 l 538 392 q 506 369 530 376 q 465 360 483 362 q 350 342 409 350 q 242 319 291 334 q 162 275 193 304 q 131 194 131 247 q 144 135 131 161 q 180 90 157 109 q 231 62 202 72 q 291 52 260 52 q 387 67 341 52 q 467 112 433 83 q 521 183 501 141 q 541 277 541 225 l 541 392 m 137 886 l 137 949 l 594 949 l 594 886 l 137 886 "},":":{"x_min":135,"x_max":252,"ha":387,"o":"m 135 0 l 135 147 l 252 147 l 252 0 l 135 0 m 135 548 l 135 695 l 252 695 l 252 548 l 135 548 "},"Ĩ":{"x_min":-63.828125,"x_max":371.828125,"ha":308,"o":"m 107 992 l 201 992 l 201 0 l 107 0 l 107 992 m 371 1251 q 358 1203 367 1227 q 335 1161 349 1180 q 298 1130 320 1142 q 251 1119 277 1119 q 196 1128 223 1119 q 147 1151 170 1138 q 102 1173 123 1163 q 59 1183 80 1183 q 15 1164 31 1183 q -9 1112 -1 1146 l -63 1112 q -51 1160 -61 1137 q -26 1203 -41 1184 q 10 1234 -11 1222 q 59 1246 31 1246 q 115 1236 90 1246 q 163 1213 140 1226 q 207 1192 187 1200 q 246 1184 227 1184 q 294 1203 278 1184 q 319 1251 310 1223 l 371 1251 "},"ă":{"x_min":44,"x_max":708,"ha":721,"o":"m 77 497 q 157 680 77 623 q 362 738 237 738 q 457 728 410 738 q 543 694 505 719 q 604 624 580 669 q 628 506 628 579 l 628 126 q 680 73 628 73 q 708 79 694 73 l 708 5 q 680 1 692 2 q 651 0 669 0 q 597 9 617 0 q 566 34 577 18 q 552 74 555 51 q 548 125 548 97 l 545 125 q 497 63 522 90 q 443 17 473 36 q 374 -11 413 -1 q 284 -21 335 -21 q 190 -8 234 -21 q 114 29 146 4 q 62 95 81 55 q 44 188 44 134 q 77 306 44 263 q 165 371 110 348 q 289 402 220 393 q 428 419 357 411 q 476 427 455 422 q 512 441 498 432 q 534 469 526 451 q 541 516 541 487 q 527 589 541 561 q 486 635 512 618 q 426 658 460 651 q 353 664 392 664 q 216 624 270 664 q 163 497 163 584 l 77 497 m 541 392 l 538 392 q 506 369 530 376 q 465 360 483 362 q 350 342 409 350 q 242 319 290 334 q 162 275 193 304 q 131 194 131 247 q 144 135 131 161 q 180 90 157 109 q 231 62 202 72 q 291 52 260 52 q 387 67 341 52 q 467 112 433 83 q 521 183 501 141 q 541 277 541 225 l 541 392 m 217 1006 q 230 956 217 978 q 263 920 243 935 q 308 898 282 905 q 359 892 333 892 q 411 899 386 892 q 457 921 436 907 q 490 957 477 936 q 508 1006 504 978 l 562 1006 q 497 876 551 923 q 358 829 442 829 q 219 874 272 829 q 166 1006 166 920 l 217 1006 "},"*":{"x_min":37.828125,"x_max":451.5625,"ha":489,"o":"m 37 826 l 57 878 l 217 821 l 217 992 l 271 992 l 271 821 l 430 878 l 451 826 l 287 772 l 387 636 l 343 604 l 241 743 l 140 604 l 96 636 l 197 772 l 37 826 "},"†":{"x_min":67,"x_max":706,"ha":773,"o":"m 67 611 l 67 685 l 342 685 l 342 992 l 429 992 l 429 685 l 706 685 l 706 611 l 429 611 l 429 -210 l 342 -210 l 342 611 l 67 611 "},"ś":{"x_min":43,"x_max":625,"ha":668,"o":"m 511 507 q 495 577 511 547 q 454 626 480 607 q 395 655 429 646 q 324 664 362 664 q 265 658 295 664 q 211 637 236 651 q 170 598 186 622 q 155 540 155 575 q 170 491 155 511 q 206 457 184 470 q 255 434 229 443 q 304 419 281 425 l 420 393 q 495 372 458 387 q 560 334 531 358 q 606 276 588 311 q 625 194 625 241 q 598 95 625 136 q 531 28 572 54 q 438 -9 490 2 q 337 -21 387 -21 q 132 39 211 -21 q 43 232 54 99 l 133 232 q 192 97 133 143 q 340 52 251 52 q 405 59 370 52 q 470 83 440 66 q 518 125 499 99 q 537 188 537 151 q 524 241 537 219 q 488 278 511 263 q 438 302 466 293 q 380 319 409 312 l 267 344 q 188 370 224 355 q 125 406 152 384 q 83 459 98 427 q 68 536 68 490 q 92 629 68 590 q 155 692 116 668 q 242 726 194 715 q 338 738 290 738 q 439 724 392 738 q 521 680 485 710 q 577 608 556 651 q 598 507 598 565 l 511 507 m 363 820 l 292 820 l 438 1016 l 547 1016 l 363 820 "},"V":{"x_min":-9.71875,"x_max":836.109375,"ha":824,"o":"m -9 992 l 91 992 l 413 104 l 416 104 l 736 992 l 836 992 l 468 0 l 358 0 l -9 992 "},"Ŗ":{"x_min":100,"x_max":881.390625,"ha":926,"o":"m 194 520 l 546 520 q 628 533 590 520 q 697 571 667 546 q 743 632 726 596 q 761 713 761 667 q 707 858 761 805 q 546 911 654 911 l 194 911 l 194 520 m 100 992 l 553 992 q 669 976 614 992 q 765 930 724 961 q 830 849 806 898 q 855 733 855 799 q 806 568 855 638 q 663 479 758 499 l 663 477 q 743 451 711 470 q 797 403 776 432 q 826 336 817 374 q 836 253 836 297 q 836 192 836 228 q 840 119 836 156 q 855 49 845 82 q 881 -1 866 17 l 777 -1 q 763 33 768 12 q 755 74 758 53 q 753 117 753 96 q 750 153 753 138 q 743 257 750 204 q 717 350 737 309 q 658 416 696 391 q 553 441 619 441 l 194 441 l 194 0 l 100 0 l 100 992 m 528 -70 l 528 -181 q 510 -240 528 -219 q 468 -272 493 -262 q 408 -282 444 -282 l 408 -243 q 439 -232 429 -239 q 455 -216 449 -226 q 462 -196 461 -207 l 409 -196 l 409 -70 l 528 -70 "},"0":{"x_min":47,"x_max":725,"ha":772,"o":"m 386 981 q 558 934 491 981 q 661 815 624 887 q 711 654 698 743 q 725 480 725 565 q 711 305 725 394 q 661 144 698 216 q 558 25 624 72 q 386 -21 491 -21 q 213 25 279 -21 q 110 144 147 72 q 60 305 73 216 q 47 479 47 394 q 60 653 47 564 q 110 815 73 743 q 213 934 147 887 q 386 981 279 981 m 386 907 q 252 864 302 907 q 176 757 202 821 q 142 618 151 693 q 134 480 134 543 q 142 342 134 416 q 176 203 151 268 q 252 95 202 138 q 386 52 302 52 q 519 95 469 52 q 595 203 569 138 q 629 342 620 268 q 637 480 637 416 q 629 618 637 543 q 595 757 620 693 q 519 864 569 821 q 386 907 469 907 "},"ō":{"x_min":47,"x_max":725,"ha":772,"o":"m 386 664 q 276 637 323 664 q 197 568 229 611 q 150 470 166 525 q 134 358 134 415 q 150 246 134 301 q 197 148 166 191 q 276 79 229 105 q 386 52 323 52 q 495 79 448 52 q 574 148 543 105 q 621 246 605 191 q 637 358 637 301 q 621 470 637 415 q 574 568 605 525 q 495 637 543 611 q 386 664 448 664 m 386 738 q 531 707 467 738 q 637 625 594 676 q 702 504 680 573 q 725 358 725 434 q 702 211 725 280 q 637 91 680 143 q 531 9 594 40 q 386 -21 467 -21 q 240 9 304 -21 q 134 91 177 40 q 69 211 91 143 q 47 358 47 280 q 69 504 47 434 q 134 625 91 573 q 240 707 177 676 q 386 738 304 738 m 164 886 l 164 949 l 621 949 l 621 886 l 164 886 "},"”":{"x_min":87,"x_max":425,"ha":514,"o":"m 211 992 l 211 843 q 203 783 211 812 q 180 727 195 753 q 142 682 165 701 q 87 654 119 662 l 87 714 q 117 735 105 719 q 138 769 130 750 q 150 808 146 788 q 152 845 153 828 l 94 845 l 94 992 l 211 992 m 425 992 l 425 843 q 417 783 425 812 q 394 727 409 753 q 356 682 379 701 q 301 654 333 662 l 301 714 q 331 735 319 719 q 352 769 344 750 q 364 808 360 788 q 366 845 367 828 l 308 845 l 308 992 l 425 992 "},"@":{"x_min":65,"x_max":1046,"ha":1111,"o":"m 719 355 q 707 312 712 333 q 703 276 702 292 q 712 250 705 260 q 737 241 720 241 q 826 272 783 241 q 901 354 869 304 q 952 465 933 404 q 972 585 972 526 q 940 739 972 671 q 855 853 909 807 q 729 925 801 900 q 577 950 658 950 q 400 913 480 950 q 261 816 319 877 q 170 670 202 754 q 139 490 139 586 q 172 314 139 396 q 264 171 205 232 q 404 76 323 111 q 580 42 486 42 q 682 54 631 42 q 780 91 733 66 q 867 149 827 115 q 938 226 908 183 l 1009 226 q 931 123 977 169 q 828 45 884 77 q 708 -3 772 13 q 580 -21 645 -21 q 373 19 467 -21 q 210 129 278 59 q 103 295 141 199 q 65 500 65 390 q 104 702 65 608 q 213 864 144 796 q 375 973 283 933 q 574 1013 467 1013 q 761 981 675 1013 q 910 892 847 950 q 1009 755 973 835 q 1046 580 1046 676 q 1017 423 1046 497 q 943 295 989 350 q 839 209 897 240 q 723 178 781 178 q 660 201 687 178 q 630 271 634 224 l 627 271 q 549 208 595 238 q 451 179 504 179 q 374 194 408 179 q 316 238 340 210 q 280 302 293 266 q 268 380 268 338 q 291 524 268 452 q 358 652 315 595 q 462 745 401 709 q 597 782 523 782 q 681 754 642 782 q 744 665 720 727 l 778 756 l 852 756 l 719 355 m 591 708 q 495 676 538 708 q 420 596 451 644 q 372 492 388 548 q 355 387 355 436 q 388 288 355 324 q 470 252 420 252 q 560 286 519 252 q 633 370 602 320 q 683 476 665 419 q 701 579 701 533 q 691 627 701 604 q 666 668 681 649 q 631 697 651 686 q 591 708 612 708 "},"ŵ":{"x_min":11.109375,"x_max":1018.0625,"ha":1029,"o":"m 11 717 l 104 717 l 287 103 l 290 103 l 465 717 l 563 717 l 738 103 l 741 103 l 925 717 l 1018 717 l 787 0 l 691 0 l 515 603 l 512 603 l 337 0 l 241 0 l 11 717 m 720 819 l 630 819 l 511 960 l 388 819 l 308 819 l 466 1015 l 562 1015 l 720 819 "},"Ķ":{"x_min":100,"x_max":918.84375,"ha":899,"o":"m 100 992 l 194 992 l 194 458 l 770 992 l 898 992 l 455 582 l 918 0 l 796 0 l 384 516 l 194 340 l 194 0 l 100 0 l 100 992 m 523 -70 l 523 -181 q 505 -240 523 -219 q 464 -272 488 -262 q 404 -282 439 -282 l 404 -243 q 434 -232 424 -239 q 450 -216 444 -226 q 458 -196 456 -207 l 404 -196 l 404 -70 l 523 -70 "},"ŉ":{"x_min":32,"x_max":689,"ha":771,"o":"m 107 717 l 194 717 l 194 593 l 197 593 q 232 652 209 625 q 286 698 255 679 q 352 727 316 717 q 426 738 388 738 q 552 718 501 738 q 633 663 602 699 q 676 576 664 628 q 689 461 689 525 l 689 0 l 601 0 l 601 447 q 593 532 601 493 q 563 601 584 572 q 507 647 542 630 q 418 664 471 664 q 324 645 365 664 q 254 594 283 626 q 209 516 225 561 q 194 418 194 470 l 194 0 l 107 0 l 107 717 m 151 1119 l 151 1007 q 133 948 151 969 q 92 916 116 926 q 32 906 67 906 l 32 945 q 62 956 52 949 q 78 972 72 962 q 86 993 84 981 l 32 993 l 32 1119 l 151 1119 "},"i":{"x_min":85,"x_max":172.5,"ha":257,"o":"m 85 992 l 172 992 l 172 852 l 85 852 l 85 992 m 85 717 l 172 717 l 172 0 l 85 0 l 85 717 "},"Ļ":{"x_min":100,"x_max":749.5625,"ha":745,"o":"m 100 992 l 194 992 l 194 80 l 749 80 l 749 -1 l 100 -1 l 100 992 m 466 -70 l 466 -181 q 448 -240 466 -219 q 407 -272 431 -262 q 347 -282 382 -282 l 347 -243 q 377 -232 367 -239 q 393 -216 387 -226 q 401 -196 399 -207 l 347 -196 l 347 -70 l 466 -70 "},"ć":{"x_min":47,"x_max":681.734375,"ha":721,"o":"m 588 492 q 521 618 570 572 q 385 664 472 664 q 276 637 323 664 q 197 568 228 611 q 150 470 166 525 q 134 358 134 415 q 150 246 134 301 q 197 148 166 191 q 276 79 228 105 q 385 52 323 52 q 462 67 426 52 q 526 110 498 83 q 572 174 553 137 q 594 257 590 212 l 681 257 q 585 52 663 126 q 385 -21 506 -21 q 240 9 303 -21 q 134 91 177 40 q 69 211 91 143 q 47 358 47 280 q 69 504 47 434 q 134 625 91 573 q 240 707 177 676 q 385 738 303 738 q 581 676 501 738 q 676 492 660 615 l 588 492 m 412 820 l 341 820 l 487 1015 l 595 1015 l 412 820 "},"]":{"x_min":5.890625,"x_max":229.5,"ha":335,"o":"m 229 1013 l 229 -265 l 5 -265 l 5 -191 l 142 -191 l 142 940 l 5 940 l 5 1013 l 229 1013 "},"Ģ":{"x_min":53,"x_max":947,"ha":1029,"o":"m 947 0 l 872 0 l 872 181 l 863 181 q 801 89 838 128 q 720 27 765 51 q 625 -9 676 2 q 520 -21 574 -21 q 316 21 404 -21 q 169 135 227 63 q 82 300 111 206 q 53 496 53 394 q 82 691 53 597 q 169 856 111 785 q 316 970 227 928 q 520 1013 404 1013 q 667 992 598 1013 q 792 929 737 971 q 883 826 847 888 q 934 684 920 764 l 840 684 q 811 770 835 726 q 746 850 787 814 q 648 909 705 886 q 520 932 591 932 q 351 894 422 932 q 235 795 280 857 q 168 654 190 733 q 147 496 147 576 q 168 336 147 414 q 235 196 189 258 q 350 97 280 134 q 519 60 421 60 q 666 87 601 60 q 774 162 730 114 q 841 278 819 211 q 863 424 863 344 l 526 424 l 526 505 l 947 505 l 947 0 m 579 -70 l 579 -181 q 561 -240 579 -219 q 520 -272 544 -262 q 460 -282 495 -282 l 460 -243 q 490 -232 480 -239 q 506 -216 499 -226 q 513 -196 512 -207 l 460 -196 l 460 -70 l 579 -70 "},"ĕ":{"x_min":47,"x_max":687.28125,"ha":721,"o":"m 597 408 q 581 504 597 458 q 535 585 565 550 q 465 642 506 621 q 370 664 423 664 q 274 642 316 664 q 203 585 233 621 q 157 503 174 550 q 134 408 140 457 l 597 408 m 134 335 q 148 236 134 286 q 190 145 162 186 q 262 79 217 105 q 370 52 308 52 q 520 103 466 52 q 595 236 574 154 l 683 236 q 581 46 655 113 q 370 -21 506 -21 q 223 9 284 -21 q 123 92 162 40 q 65 213 84 144 q 47 358 47 282 q 65 497 47 429 q 123 619 84 565 q 223 705 162 672 q 369 738 283 738 q 516 703 455 738 q 615 612 577 668 q 670 482 654 555 q 687 335 687 410 l 134 335 m 232 1006 q 245 956 232 978 q 278 920 258 935 q 322 898 297 905 q 374 892 347 892 q 425 899 400 892 q 471 921 450 907 q 504 957 491 936 q 522 1006 517 978 l 576 1006 q 511 876 564 923 q 372 829 457 829 q 234 875 287 829 q 181 1006 181 921 l 232 1006 "},"m":{"x_min":83,"x_max":1073.5,"ha":1157,"o":"m 83 717 l 163 717 l 163 596 l 167 596 q 259 699 202 661 q 402 738 316 738 q 531 703 473 738 q 608 597 588 668 q 702 703 640 668 q 835 738 765 738 q 1073 486 1073 738 l 1073 0 l 986 0 l 986 482 q 948 617 986 571 q 816 664 910 664 q 722 642 759 664 q 662 585 684 621 q 631 502 640 548 q 622 405 622 455 l 622 0 l 534 0 l 534 486 q 526 555 534 522 q 501 612 519 587 q 455 650 484 636 q 384 664 426 664 q 287 644 327 664 q 221 588 246 624 q 183 504 195 553 q 170 400 170 455 l 170 0 l 83 0 l 83 717 "},"ż":{"x_min":21,"x_max":620,"ha":644,"o":"m 126 73 l 620 73 l 620 0 l 21 0 l 21 70 l 488 643 l 53 643 l 53 717 l 600 717 l 600 654 l 126 73 m 277 848 l 277 988 l 371 988 l 371 848 l 277 848 "},"8":{"x_min":53,"x_max":721,"ha":772,"o":"m 386 556 q 463 566 426 556 q 530 599 501 576 q 576 656 558 622 q 593 737 593 690 q 577 811 593 779 q 533 864 561 843 q 467 896 505 885 q 386 907 429 907 q 308 896 346 907 q 241 864 271 885 q 195 811 212 843 q 178 737 178 779 q 196 654 178 689 q 243 597 214 619 q 309 565 272 575 q 386 556 347 556 m 681 737 q 639 602 681 658 q 522 524 597 546 l 522 521 q 668 436 616 502 q 721 272 721 371 q 694 143 721 198 q 622 52 668 88 q 515 -2 576 15 q 387 -21 454 -21 q 258 -2 319 -21 q 151 52 197 15 q 79 143 105 88 q 53 272 53 198 q 105 436 53 368 q 249 521 158 504 l 249 524 q 131 602 172 547 q 90 737 90 657 q 116 846 90 800 q 183 921 141 892 q 278 966 225 951 q 385 981 330 981 q 492 966 439 981 q 587 921 544 951 q 655 846 629 892 q 681 737 681 800 m 386 52 q 482 65 437 52 q 561 106 527 79 q 614 174 594 133 q 633 271 633 216 q 613 364 633 324 q 559 430 593 403 q 479 470 525 457 q 386 484 434 484 q 291 470 336 484 q 212 431 245 457 q 159 365 179 404 q 139 271 139 325 q 158 176 139 217 q 211 107 177 134 q 289 66 244 80 q 386 52 334 52 "},"ő":{"x_min":47,"x_max":725,"ha":772,"o":"m 386 664 q 276 637 323 664 q 197 568 229 611 q 150 470 166 525 q 134 358 134 415 q 150 246 134 301 q 197 148 166 191 q 276 79 229 105 q 386 52 323 52 q 495 79 448 52 q 574 148 543 105 q 621 246 605 191 q 637 358 637 301 q 621 470 637 415 q 574 568 605 525 q 495 637 543 611 q 386 664 448 664 m 386 738 q 531 707 467 738 q 637 625 594 676 q 702 504 680 573 q 725 358 725 434 q 702 211 725 280 q 637 91 680 143 q 531 9 594 40 q 386 -21 467 -21 q 240 9 304 -21 q 134 91 177 40 q 69 211 91 143 q 47 358 47 280 q 69 504 47 434 q 134 625 91 573 q 240 707 177 676 q 386 738 304 738 m 454 820 l 594 1016 l 700 1016 l 524 820 l 454 820 m 237 820 l 377 1016 l 483 1016 l 308 820 l 237 820 "},"ž":{"x_min":21,"x_max":620,"ha":644,"o":"m 126 73 l 620 73 l 620 0 l 21 0 l 21 70 l 488 643 l 53 643 l 53 717 l 600 717 l 600 654 l 126 73 m 115 1015 l 205 1015 l 325 874 l 447 1015 l 527 1015 l 369 820 l 273 820 l 115 1015 "},"R":{"x_min":100,"x_max":881.390625,"ha":926,"o":"m 194 520 l 546 520 q 628 533 590 520 q 697 571 667 546 q 743 632 726 596 q 761 713 761 667 q 707 858 761 805 q 546 911 654 911 l 194 911 l 194 520 m 100 992 l 553 992 q 669 976 614 992 q 765 930 724 961 q 830 849 806 898 q 855 733 855 799 q 806 568 855 638 q 663 479 758 499 l 663 477 q 743 451 711 470 q 797 403 776 432 q 826 336 817 374 q 836 253 836 297 q 836 192 836 228 q 840 119 836 156 q 855 49 845 82 q 881 -1 866 17 l 777 -1 q 763 33 768 12 q 755 74 758 53 q 753 117 753 96 q 750 153 753 138 q 743 257 750 204 q 717 350 737 309 q 658 416 696 391 q 553 441 619 441 l 194 441 l 194 0 l 100 0 l 100 992 "},"ť":{"x_min":10,"x_max":533.265625,"ha":461,"o":"m 413 796 l 348 796 l 424 992 l 533 992 l 413 796 m 222 716 l 368 716 l 368 643 l 223 643 l 223 158 q 234 91 223 115 q 293 66 246 66 q 368 69 330 66 l 368 -7 q 329 -7 348 -7 q 290 -7 309 -7 q 168 27 203 -7 q 134 152 134 61 l 134 643 l 10 643 l 10 716 l 135 716 l 135 932 l 222 932 l 222 716 "},"Ŏ":{"x_min":47,"x_max":982,"ha":1029,"o":"m 141 496 q 162 336 141 414 q 229 196 184 258 q 345 97 274 134 q 515 60 416 60 q 683 97 612 60 q 799 196 754 134 q 866 336 844 258 q 888 496 888 414 q 866 654 888 576 q 799 795 844 733 q 683 894 754 857 q 515 932 612 932 q 345 894 416 932 q 229 795 274 857 q 162 654 184 733 q 141 496 141 576 m 47 496 q 76 691 47 597 q 163 856 105 785 q 310 970 222 928 q 515 1013 398 1013 q 719 970 631 1013 q 865 856 806 928 q 952 691 923 785 q 982 496 982 597 q 952 300 982 394 q 865 135 923 206 q 719 21 806 63 q 515 -21 631 -21 q 310 21 398 -21 q 163 135 222 63 q 76 300 105 206 q 47 496 47 394 m 372 1270 q 385 1220 372 1242 q 418 1184 398 1199 q 462 1162 437 1169 q 514 1156 488 1156 q 566 1163 541 1156 q 611 1185 591 1171 q 645 1221 631 1200 q 662 1270 658 1242 l 716 1270 q 651 1140 705 1187 q 513 1093 597 1093 q 374 1138 427 1093 q 321 1270 321 1184 l 372 1270 "},"Ľ":{"x_min":100,"x_max":749.5625,"ha":745,"o":"m 100 992 l 194 992 l 194 80 l 749 80 l 749 -1 l 100 -1 l 100 992 m 405 796 l 339 796 l 416 992 l 524 992 l 405 796 "},"Ż":{"x_min":7,"x_max":779,"ha":797,"o":"m 51 992 l 765 992 l 765 908 l 112 80 l 779 80 l 779 -1 l 7 -1 l 7 82 l 659 911 l 51 911 l 51 992 m 360 1111 l 360 1251 l 454 1251 l 454 1111 l 360 1111 "},"o":{"x_min":47,"x_max":725,"ha":772,"o":"m 386 664 q 276 637 323 664 q 197 568 229 611 q 150 470 166 525 q 134 358 134 415 q 150 246 134 301 q 197 148 166 191 q 276 79 229 105 q 386 52 323 52 q 495 79 448 52 q 574 148 543 105 q 621 246 605 191 q 637 358 637 301 q 621 470 637 415 q 574 568 605 525 q 495 637 543 611 q 386 664 448 664 m 386 738 q 531 707 467 738 q 637 625 594 676 q 702 504 680 573 q 725 358 725 434 q 702 211 725 280 q 637 91 680 143 q 531 9 594 40 q 386 -21 467 -21 q 240 9 304 -21 q 134 91 177 40 q 69 211 91 143 q 47 358 47 280 q 69 504 47 434 q 134 625 91 573 q 240 707 177 676 q 386 738 304 738 "},"5":{"x_min":50,"x_max":707,"ha":772,"o":"m 137 278 q 156 186 137 227 q 207 114 175 144 q 282 68 239 84 q 375 52 325 52 q 476 74 431 52 q 554 131 521 95 q 602 216 586 168 q 619 318 619 265 q 600 418 619 372 q 549 498 582 464 q 470 551 516 532 q 370 571 425 571 q 247 541 305 571 q 154 456 190 511 l 79 456 l 173 960 l 660 960 l 660 879 l 234 879 l 172 557 l 175 554 q 267 621 211 597 q 380 644 323 644 q 516 619 455 644 q 618 550 576 594 q 684 443 661 505 q 707 308 707 382 q 680 177 707 237 q 608 72 654 116 q 500 4 562 29 q 368 -21 438 -21 q 242 0 300 -21 q 142 58 185 20 q 75 152 100 97 q 50 278 50 208 l 137 278 "},"İ":{"x_min":107,"x_max":201,"ha":308,"o":"m 107 992 l 201 992 l 201 0 l 107 0 l 107 992 m 107 1112 l 107 1252 l 201 1252 l 201 1112 l 107 1112 "},"ħ":{"x_min":0,"x_max":696,"ha":778,"o":"m 114 992 l 201 992 l 201 874 l 414 874 l 414 811 l 201 811 l 201 593 l 204 593 q 239 652 216 625 q 293 698 262 679 q 359 727 323 717 q 433 738 395 738 q 559 718 508 738 q 640 663 609 699 q 683 576 671 628 q 696 461 696 525 l 696 0 l 608 0 l 608 447 q 600 532 608 493 q 570 601 591 572 q 514 647 549 630 q 425 664 478 664 q 331 645 372 664 q 261 594 290 626 q 216 516 232 561 q 201 418 201 470 l 201 0 l 114 0 l 114 811 l 0 811 l 0 874 l 114 874 l 114 992 "},"Ě":{"x_min":100,"x_max":791.234375,"ha":823,"o":"m 100 992 l 784 992 l 784 911 l 194 911 l 194 553 l 746 553 l 746 472 l 194 472 l 194 80 l 791 80 l 791 -1 l 100 -1 l 100 992 m 230 1279 l 320 1279 l 439 1137 l 562 1279 l 642 1279 l 484 1083 l 388 1083 l 230 1279 "},"7":{"x_min":71,"x_max":696,"ha":772,"o":"m 71 961 l 696 961 l 696 880 q 585 752 650 832 q 459 562 520 672 q 352 310 398 451 q 307 0 307 169 l 213 0 q 239 233 213 123 q 313 448 265 343 q 434 659 362 553 q 608 880 507 764 l 71 880 l 71 961 "},"K":{"x_min":100,"x_max":919.015625,"ha":900,"o":"m 100 992 l 194 992 l 194 458 l 770 992 l 898 992 l 455 582 l 919 0 l 796 0 l 384 516 l 194 340 l 194 0 l 100 0 l 100 992 "},",":{"x_min":129,"x_max":252,"ha":387,"o":"m 252 147 l 252 -1 q 244 -61 252 -32 q 221 -117 236 -91 q 182 -162 205 -143 q 129 -190 159 -182 l 129 -130 q 158 -109 146 -125 q 179 -75 171 -94 q 191 -36 187 -56 q 193 0 194 -16 l 135 0 l 135 147 l 252 147 "},"d":{"x_min":53,"x_max":714,"ha":797,"o":"m 714 0 l 633 0 l 633 136 l 630 136 q 589 72 616 101 q 527 22 562 42 q 453 -9 493 1 q 375 -21 414 -21 q 232 9 293 -21 q 132 92 172 40 q 72 213 91 144 q 53 358 53 282 q 72 503 53 434 q 132 624 91 572 q 232 707 172 676 q 375 738 293 738 q 453 727 415 738 q 525 697 491 717 q 584 649 558 678 q 623 581 609 619 l 626 581 l 626 992 l 714 992 l 714 0 m 140 358 q 153 247 140 302 q 195 149 166 193 q 268 79 223 106 q 375 52 312 52 q 492 79 444 52 q 570 149 540 106 q 613 247 600 193 q 626 358 626 302 q 613 469 626 414 q 570 567 600 523 q 492 637 540 610 q 375 664 444 664 q 268 637 312 664 q 195 567 223 610 q 153 469 166 523 q 140 358 140 414 "},"E":{"x_min":100,"x_max":791.234375,"ha":823,"o":"m 100 992 l 784 992 l 784 911 l 194 911 l 194 553 l 746 553 l 746 472 l 194 472 l 194 80 l 791 80 l 791 -1 l 100 -1 l 100 992 "},"Y":{"x_min":-14.28125,"x_max":861.671875,"ha":848,"o":"m 376 408 l -14 992 l 98 992 l 424 489 l 749 992 l 861 992 l 470 408 l 470 0 l 376 0 l 376 408 "},"\"":{"x_min":121,"x_max":393,"ha":514,"o":"m 305 992 l 393 992 l 393 654 l 305 654 l 305 992 m 121 992 l 208 992 l 208 654 l 121 654 l 121 992 "},"‹":{"x_min":74,"x_max":259,"ha":360,"o":"m 74 339 l 74 425 l 259 599 l 259 505 l 128 382 l 259 258 l 259 165 l 74 339 "},"„":{"x_min":87,"x_max":425,"ha":514,"o":"m 211 147 l 211 -1 q 203 -61 211 -32 q 180 -117 195 -91 q 142 -162 165 -143 q 87 -190 119 -182 l 87 -130 q 117 -109 105 -125 q 138 -75 130 -94 q 150 -36 146 -56 q 152 0 153 -16 l 94 0 l 94 147 l 211 147 m 425 147 l 425 -1 q 417 -61 425 -32 q 394 -117 409 -91 q 356 -162 379 -143 q 301 -190 333 -182 l 301 -130 q 331 -109 319 -125 q 352 -75 344 -94 q 364 -36 360 -56 q 366 0 367 -16 l 308 0 l 308 147 l 425 147 "},"ľ":{"x_min":85,"x_max":426.671875,"ha":354,"o":"m 85 992 l 172 992 l 172 0 l 85 0 l 85 992 m 307 796 l 241 796 l 318 992 l 426 992 l 307 796 "},"ġ":{"x_min":47,"x_max":688.5,"ha":772,"o":"m 688 58 q 671 -85 688 -22 q 616 -194 653 -149 q 517 -262 578 -238 q 369 -286 457 -286 q 263 -273 314 -286 q 170 -234 211 -260 q 102 -167 129 -208 q 75 -69 75 -126 l 160 -69 q 188 -136 167 -109 q 236 -180 208 -163 q 299 -204 265 -197 q 370 -212 334 -212 q 546 -142 492 -212 q 601 58 601 -73 l 601 156 l 598 156 q 508 48 567 88 q 370 8 448 8 q 223 36 284 8 q 122 115 162 65 q 65 232 83 165 q 47 376 47 300 q 68 516 47 450 q 131 631 90 582 q 232 709 171 681 q 370 738 292 738 q 510 695 449 738 q 598 594 571 653 l 601 594 l 601 717 l 688 717 l 688 58 m 370 82 q 470 106 427 82 q 542 170 513 130 q 586 261 571 209 q 601 366 601 312 q 588 472 601 419 q 548 568 576 525 q 476 637 520 611 q 370 664 433 664 q 263 638 308 664 q 190 571 219 612 q 147 476 160 529 q 134 366 134 422 q 148 261 134 312 q 191 170 162 209 q 265 106 220 130 q 370 82 309 82 m 338 848 l 338 988 l 432 988 l 432 848 l 338 848 "},"Į":{"x_min":22,"x_max":259.328125,"ha":308,"o":"m 201 0 q 145 -54 167 -30 q 112 -98 123 -79 q 100 -131 102 -118 q 98 -162 98 -144 q 114 -212 98 -196 q 153 -228 131 -228 q 194 -210 177 -228 q 221 -171 212 -193 l 259 -189 q 206 -261 237 -241 q 135 -282 176 -282 q 51 -250 80 -282 q 22 -168 22 -218 q 25 -141 22 -156 q 40 -106 28 -125 q 78 -59 51 -87 q 154 0 105 -31 l 107 0 l 107 992 l 201 992 l 201 0 "},"ķ":{"x_min":83,"x_max":705.171875,"ha":694,"o":"m 83 992 l 170 992 l 170 369 l 567 717 l 684 717 l 378 451 l 705 0 l 595 0 l 312 390 l 170 272 l 170 0 l 83 0 l 83 992 m 426 -70 l 426 -181 q 408 -240 426 -219 q 367 -272 391 -262 q 307 -282 342 -282 l 307 -243 q 337 -232 327 -239 q 353 -216 347 -226 q 360 -196 359 -207 l 307 -196 l 307 -70 l 426 -70 "},"ė":{"x_min":47,"x_max":687.28125,"ha":721,"o":"m 597 408 q 581 504 597 458 q 535 585 565 550 q 465 642 506 621 q 370 664 423 664 q 274 642 316 664 q 203 585 233 621 q 157 503 174 550 q 134 408 140 457 l 597 408 m 134 335 q 148 236 134 286 q 190 145 162 186 q 262 79 217 105 q 370 52 308 52 q 520 103 466 52 q 595 236 574 154 l 683 236 q 581 46 655 113 q 370 -21 506 -21 q 223 9 284 -21 q 123 92 162 40 q 65 213 84 144 q 47 358 47 282 q 65 497 47 429 q 123 619 84 565 q 223 705 162 672 q 369 738 283 738 q 516 703 455 738 q 615 612 577 668 q 670 482 654 555 q 687 335 687 410 l 134 335 m 322 848 l 322 988 l 416 988 l 416 848 l 322 848 "},"Ţ":{"x_min":-7,"x_max":779,"ha":772,"o":"m -7 992 l 779 992 l 779 911 l 433 911 l 433 0 l 339 0 l 339 911 l -7 911 l -7 992 m 446 -70 l 446 -181 q 428 -240 446 -219 q 386 -272 411 -262 q 326 -282 362 -282 l 326 -243 q 356 -232 347 -239 q 372 -216 366 -226 q 380 -196 379 -207 l 327 -196 l 327 -70 l 446 -70 "},"|":{"x_min":118,"x_max":192,"ha":309,"o":"m 118 1093 l 192 1093 l 192 -297 l 118 -297 l 118 1093 "},"Ŷ":{"x_min":-14.28125,"x_max":861.671875,"ha":848,"o":"m 376 407 l -14 992 l 98 992 l 424 488 l 749 992 l 861 992 l 470 407 l 470 -1 l 376 -1 l 376 407 m 636 1082 l 546 1082 l 427 1223 l 305 1082 l 224 1082 l 382 1278 l 478 1278 l 636 1082 "},"ŝ":{"x_min":43,"x_max":625,"ha":668,"o":"m 511 507 q 495 577 511 547 q 454 626 480 607 q 395 655 429 646 q 324 664 362 664 q 265 658 295 664 q 211 637 236 651 q 170 598 186 622 q 155 540 155 575 q 170 491 155 511 q 206 457 184 470 q 255 434 229 443 q 304 419 281 425 l 420 393 q 495 372 458 387 q 560 334 531 358 q 606 276 588 311 q 625 194 625 241 q 598 95 625 136 q 531 28 572 54 q 438 -9 490 2 q 337 -21 387 -21 q 132 39 211 -21 q 43 232 54 99 l 133 232 q 192 97 133 143 q 340 52 251 52 q 405 59 370 52 q 470 83 440 66 q 518 125 499 99 q 537 188 537 151 q 524 241 537 219 q 488 278 511 263 q 438 302 466 293 q 380 319 409 312 l 267 344 q 188 370 224 355 q 125 406 152 384 q 83 459 98 427 q 68 536 68 490 q 92 629 68 590 q 155 692 116 668 q 242 726 194 715 q 338 738 290 738 q 439 724 392 738 q 521 680 485 710 q 577 608 556 651 q 598 507 598 565 l 511 507 m 547 818 l 456 818 l 337 960 l 215 818 l 134 818 l 292 1014 l 388 1014 l 547 818 "},"Ĉ":{"x_min":53,"x_max":933.109375,"ha":978,"o":"m 824 692 q 783 793 812 748 q 714 869 755 839 q 624 916 673 900 q 520 932 574 932 q 351 894 422 932 q 235 795 280 857 q 168 654 190 733 q 147 496 147 576 q 168 336 147 414 q 235 196 190 258 q 351 97 280 134 q 520 60 422 60 q 644 84 588 60 q 741 153 701 109 q 806 253 781 196 q 838 378 831 311 l 933 378 q 890 212 923 286 q 804 86 856 138 q 679 6 751 34 q 520 -21 608 -21 q 316 21 404 -21 q 169 135 227 63 q 82 300 111 206 q 53 496 53 394 q 82 691 53 597 q 169 856 111 785 q 316 970 227 928 q 520 1013 404 1013 q 658 992 591 1013 q 781 930 726 971 q 872 829 835 889 q 919 692 909 769 l 824 692 m 726 1083 l 635 1083 l 516 1224 l 394 1083 l 313 1083 l 472 1278 l 567 1278 l 726 1083 "},"ą":{"x_min":44,"x_max":709.390625,"ha":721,"o":"m 77 498 q 157 681 77 624 q 362 738 237 738 q 457 728 410 738 q 543 694 505 719 q 604 624 580 670 q 628 507 628 579 l 628 126 q 680 73 628 73 q 708 79 694 73 l 708 5 q 680 1 692 2 q 650 0 668 0 l 645 0 q 583 -54 607 -30 q 548 -98 559 -79 q 534 -131 537 -118 q 532 -162 532 -144 q 550 -212 532 -196 q 592 -228 569 -228 q 638 -210 619 -228 q 668 -170 657 -193 l 709 -189 q 651 -261 685 -241 q 573 -282 617 -282 q 479 -250 512 -282 q 447 -168 447 -218 q 451 -140 447 -156 q 467 -106 455 -124 q 509 -59 480 -87 q 600 6 537 -33 q 596 8 598 8 q 566 34 577 17 q 552 74 555 51 q 548 125 548 97 l 545 125 q 497 63 522 90 q 443 17 473 36 q 374 -10 413 -1 q 284 -20 335 -20 q 190 -8 234 -20 q 114 30 146 4 q 62 95 81 55 q 44 189 44 134 q 77 306 44 264 q 165 371 110 348 q 289 402 220 393 q 428 419 357 411 q 476 427 455 422 q 512 442 498 432 q 534 469 526 451 q 541 517 541 487 q 527 590 541 561 q 486 635 512 618 q 426 658 460 651 q 353 664 392 664 q 216 624 270 664 q 163 498 163 585 l 77 498 m 541 392 l 538 392 q 506 369 530 376 q 465 360 483 362 q 350 342 409 350 q 242 319 291 334 q 162 275 193 304 q 131 194 131 247 q 144 135 131 161 q 180 91 157 109 q 231 62 202 72 q 291 53 260 53 q 387 68 341 53 q 467 112 433 83 q 521 183 501 141 q 541 278 541 225 l 541 392 "},"b":{"x_min":83,"x_max":744,"ha":797,"o":"m 83 992 l 170 992 l 170 581 l 173 581 q 212 649 187 619 q 271 697 238 678 q 343 727 305 717 q 421 738 381 738 q 564 707 503 738 q 664 624 624 676 q 724 503 705 572 q 744 358 744 434 q 724 213 744 282 q 664 92 705 144 q 564 9 624 40 q 421 -21 503 -21 q 265 20 334 -21 q 166 136 196 62 l 163 136 l 163 0 l 83 0 l 83 992 m 656 358 q 643 469 656 414 q 601 567 630 523 q 528 637 573 610 q 421 664 484 664 q 304 637 352 664 q 226 567 256 610 q 183 469 196 523 q 170 358 170 414 q 183 247 170 302 q 226 149 196 193 q 304 79 256 106 q 421 52 352 52 q 528 79 484 52 q 601 149 573 106 q 643 247 630 193 q 656 358 656 302 "},"q":{"x_min":53,"x_max":714,"ha":797,"o":"m 714 -265 l 626 -265 l 626 137 l 623 137 q 584 68 609 97 q 525 19 558 39 q 453 -10 491 -1 q 375 -20 415 -20 q 232 9 293 -20 q 132 92 172 40 q 72 213 91 144 q 53 359 53 282 q 72 504 53 435 q 132 625 91 573 q 232 708 172 677 q 375 738 293 738 q 453 727 414 738 q 527 695 493 716 q 589 645 562 674 q 630 581 616 616 l 633 581 l 633 718 l 714 718 l 714 -265 m 140 359 q 153 248 140 303 q 195 150 166 193 q 268 80 223 107 q 375 53 312 53 q 492 80 444 53 q 570 150 540 107 q 613 248 600 193 q 626 359 626 303 q 613 469 626 414 q 570 567 600 524 q 492 637 540 610 q 375 665 444 665 q 268 637 312 665 q 195 567 223 610 q 153 469 166 524 q 140 359 140 414 "},"z":{"x_min":21,"x_max":620,"ha":644,"o":"m 126 73 l 620 73 l 620 0 l 21 0 l 21 70 l 488 643 l 53 643 l 53 717 l 600 717 l 600 654 l 126 73 "},"Ř":{"x_min":100,"x_max":881.390625,"ha":926,"o":"m 194 520 l 546 520 q 628 533 590 520 q 697 571 667 546 q 743 632 726 596 q 761 713 761 667 q 707 858 761 805 q 546 911 654 911 l 194 911 l 194 520 m 100 992 l 553 992 q 669 976 614 992 q 765 930 724 961 q 830 849 806 898 q 855 733 855 799 q 806 568 855 638 q 663 479 758 499 l 663 477 q 743 451 711 470 q 797 403 776 432 q 826 336 817 374 q 836 253 836 297 q 836 192 836 228 q 840 119 836 156 q 855 49 845 82 q 881 -1 866 17 l 777 -1 q 763 33 768 12 q 755 74 758 53 q 753 117 753 96 q 750 153 753 138 q 743 257 750 204 q 717 350 737 309 q 658 416 696 391 q 553 441 619 441 l 194 441 l 194 0 l 100 0 l 100 992 m 223 1279 l 313 1279 l 433 1137 l 555 1279 l 636 1279 l 477 1083 l 381 1083 l 223 1279 "},"Ň":{"x_min":99,"x_max":879,"ha":978,"o":"m 99 992 l 204 992 l 782 153 l 785 153 l 785 992 l 879 992 l 879 0 l 773 0 l 195 839 l 193 839 l 193 0 l 99 0 l 99 992 m 273 1280 l 363 1280 l 483 1138 l 605 1280 l 686 1280 l 527 1084 l 432 1084 l 273 1280 "},"ĩ":{"x_min":-88.609375,"x_max":347.5,"ha":257,"o":"m 85 0 l 85 717 l 172 717 l 172 0 l 85 0 m 347 987 q 334 939 343 963 q 310 897 325 916 q 274 866 296 878 q 226 855 253 855 q 172 864 198 855 q 122 886 146 874 q 77 908 98 898 q 35 918 55 918 q -9 900 7 918 q -34 848 -26 882 l -88 848 q -76 896 -85 872 q -51 938 -66 920 q -14 969 -35 957 q 35 981 7 981 q 90 971 65 981 q 139 949 115 961 q 182 928 162 936 q 222 920 203 920 q 270 939 254 920 q 294 987 286 958 l 347 987 "},"ŀ":{"x_min":85,"x_max":356,"ha":412,"o":"m 85 992 l 172 992 l 172 0 l 85 0 l 85 992 m 262 578 l 262 718 l 356 718 l 356 578 l 262 578 "},"~":{"x_min":95.828125,"x_max":737.5,"ha":833,"o":"m 737 387 q 704 343 722 365 q 667 305 687 322 q 621 278 647 288 q 563 268 595 268 q 484 281 522 268 q 411 313 447 295 q 338 344 375 330 q 262 358 302 358 q 189 328 216 358 q 145 262 162 298 l 95 312 q 122 356 106 334 q 159 394 138 377 q 207 421 180 411 q 269 432 234 432 q 349 418 308 432 q 429 387 390 404 q 504 355 469 369 q 565 341 538 341 q 635 371 606 341 q 687 437 663 401 l 737 387 "},"Ċ":{"x_min":53,"x_max":933.828125,"ha":978,"o":"m 825 692 q 784 793 813 748 q 714 869 756 839 q 624 916 673 900 q 521 932 575 932 q 351 894 422 932 q 235 795 280 857 q 168 654 190 733 q 147 496 147 576 q 168 336 147 414 q 235 196 190 258 q 351 97 280 134 q 521 60 422 60 q 645 84 589 60 q 742 153 701 109 q 807 253 782 196 q 839 378 832 311 l 933 378 q 890 212 924 286 q 804 86 857 138 q 680 6 751 34 q 521 -21 608 -21 q 316 21 404 -21 q 169 135 228 63 q 82 300 111 206 q 53 496 53 394 q 82 691 53 597 q 169 856 111 785 q 316 970 228 928 q 521 1013 404 1013 q 659 992 592 1013 q 781 930 726 971 q 873 829 836 889 q 919 692 910 769 l 825 692 m 469 1112 l 469 1252 l 563 1252 l 563 1112 l 469 1112 "},"Ũ":{"x_min":90,"x_max":861,"ha":951,"o":"m 90 992 l 184 992 l 184 378 q 203 231 184 291 q 260 132 222 171 q 352 77 298 94 q 474 60 406 60 q 597 77 542 60 q 690 132 652 94 q 747 231 728 171 q 767 378 767 291 l 767 992 l 861 992 l 861 356 q 839 211 861 280 q 771 91 817 142 q 651 9 724 40 q 474 -21 579 -21 q 299 9 372 -21 q 179 91 226 40 q 111 211 133 142 q 90 356 90 280 l 90 992 m 693 1251 q 680 1203 689 1227 q 656 1161 670 1180 q 620 1130 641 1142 q 572 1119 598 1119 q 517 1128 544 1119 q 467 1150 491 1138 q 422 1172 444 1162 q 380 1182 401 1182 q 335 1164 352 1182 q 310 1112 318 1146 l 256 1112 q 268 1160 259 1136 q 293 1202 278 1184 q 330 1233 309 1221 q 380 1245 352 1245 q 435 1235 410 1245 q 484 1213 460 1225 q 528 1192 508 1200 q 568 1184 548 1184 q 616 1203 600 1184 q 640 1251 632 1222 l 693 1251 "},"[":{"x_min":106,"x_max":329.609375,"ha":335,"o":"m 106 -265 l 106 1013 l 329 1013 l 329 940 l 193 940 l 193 -191 l 329 -191 l 329 -265 l 106 -265 "},"L":{"x_min":100,"x_max":749.5625,"ha":745,"o":"m 100 992 l 194 992 l 194 80 l 749 80 l 749 -1 l 100 -1 l 100 992 "},"ď":{"x_min":53,"x_max":968.171875,"ha":896,"o":"m 714 0 l 633 0 l 633 136 l 630 136 q 589 72 616 101 q 527 22 562 42 q 453 -9 493 1 q 375 -21 414 -21 q 232 9 293 -21 q 132 92 172 40 q 72 213 91 144 q 53 358 53 282 q 72 503 53 434 q 132 624 91 572 q 232 707 172 676 q 375 738 293 738 q 453 727 415 738 q 525 697 491 717 q 584 649 558 678 q 623 581 609 619 l 626 581 l 626 992 l 714 992 l 714 0 m 140 358 q 153 247 140 302 q 195 149 166 193 q 268 79 223 106 q 375 52 312 52 q 492 79 444 52 q 570 149 540 106 q 613 247 600 193 q 626 358 626 302 q 613 469 626 414 q 570 567 600 523 q 492 637 540 610 q 375 664 444 664 q 268 637 312 664 q 195 567 223 610 q 153 469 166 523 q 140 358 140 414 m 848 796 l 783 796 l 859 992 l 968 992 l 848 796 "}," ":{"x_min":0,"x_max":0,"ha":386},"ŧ":{"x_min":-4,"x_max":385,"ha":411,"o":"m 222 717 l 368 717 l 368 643 l 222 643 l 222 506 l 385 506 l 385 443 l 222 443 l 222 158 q 233 91 222 115 q 293 66 245 66 q 368 69 330 66 l 368 -7 q 329 -7 348 -7 q 290 -7 309 -7 q 167 27 202 -7 q 133 152 133 61 l 133 443 l -4 443 l -4 506 l 135 506 l 135 643 l 10 643 l 10 717 l 135 717 l 135 932 l 222 932 l 222 717 "},"%":{"x_min":96,"x_max":1148,"ha":1236,"o":"m 317 981 q 417 960 375 981 q 486 905 460 940 q 525 821 512 869 q 538 718 538 773 q 525 614 538 662 q 486 530 512 566 q 417 475 460 495 q 317 455 375 455 q 216 475 258 455 q 147 530 173 495 q 108 614 121 566 q 96 718 96 662 q 108 821 96 773 q 147 905 121 869 q 216 960 173 940 q 317 981 258 981 m 927 442 q 854 423 882 442 q 809 374 825 404 q 786 309 792 344 q 780 240 780 273 q 786 172 780 207 q 809 108 792 137 q 854 60 825 79 q 927 42 882 42 q 998 60 970 42 q 1043 108 1026 79 q 1067 172 1060 137 q 1074 240 1074 207 q 1067 309 1074 273 q 1043 374 1060 344 q 998 423 1026 404 q 927 442 970 442 m 927 505 q 1027 484 985 505 q 1096 429 1070 464 q 1135 345 1122 393 q 1148 241 1148 297 q 1135 138 1148 186 q 1096 54 1122 90 q 1027 0 1070 19 q 927 -21 985 -21 q 826 0 868 -21 q 757 54 783 19 q 718 138 731 90 q 706 241 706 186 q 718 345 706 297 q 757 429 731 393 q 826 484 783 464 q 927 505 868 505 m 893 1008 l 958 1008 l 330 -48 l 264 -48 l 893 1008 m 317 918 q 244 899 272 918 q 199 850 215 880 q 176 785 182 820 q 170 716 170 749 q 176 648 170 683 q 199 584 182 613 q 244 536 215 555 q 317 518 272 518 q 388 536 359 518 q 433 584 416 555 q 457 648 450 613 q 464 716 464 683 q 457 785 464 749 q 433 850 450 820 q 388 899 416 880 q 317 918 359 918 "},"P":{"x_min":100,"x_max":835,"ha":875,"o":"m 194 505 l 519 505 q 679 555 618 505 q 741 707 741 605 q 679 860 741 810 q 519 911 618 911 l 194 911 l 194 505 m 100 992 l 540 992 q 661 973 607 992 q 754 917 715 954 q 814 827 793 880 q 835 708 835 774 q 814 588 835 641 q 754 498 793 535 q 661 442 715 461 q 540 424 607 424 l 194 424 l 194 0 l 100 0 l 100 992 "},"_":{"x_min":0,"x_max":694,"ha":694,"o":"m 0 -174 l 0 -104 l 694 -104 l 694 -174 l 0 -174 "},"Ŕ":{"x_min":100,"x_max":881.390625,"ha":926,"o":"m 194 520 l 546 520 q 628 533 590 520 q 697 571 667 546 q 743 632 726 596 q 761 713 761 667 q 707 858 761 805 q 546 911 654 911 l 194 911 l 194 520 m 100 992 l 553 992 q 669 976 614 992 q 765 930 724 961 q 830 849 806 898 q 855 733 855 799 q 806 568 855 638 q 663 479 758 499 l 663 477 q 743 451 711 470 q 797 403 776 432 q 826 336 817 374 q 836 253 836 297 q 836 192 836 228 q 840 119 836 156 q 855 49 845 82 q 881 -1 866 17 l 777 -1 q 763 33 768 12 q 755 74 758 53 q 753 117 753 96 q 750 153 753 138 q 743 257 750 204 q 717 350 737 309 q 658 416 696 391 q 553 441 619 441 l 194 441 l 194 0 l 100 0 l 100 992 m 466 1083 l 395 1083 l 541 1279 l 650 1279 l 466 1083 "},"+":{"x_min":68,"x_max":767,"ha":834,"o":"m 380 699 l 454 699 l 454 386 l 767 386 l 767 313 l 454 313 l 454 0 l 380 0 l 380 313 l 68 313 l 68 386 l 380 386 l 380 699 "},"‚":{"x_min":131,"x_max":255,"ha":387,"o":"m 255 147 l 255 -1 q 247 -61 255 -32 q 224 -117 239 -91 q 186 -162 209 -143 q 131 -190 163 -182 l 131 -130 q 161 -109 149 -125 q 182 -75 174 -94 q 194 -36 190 -56 q 196 0 197 -16 l 138 0 l 138 147 l 255 147 "},"ğ":{"x_min":47,"x_max":688.5,"ha":772,"o":"m 688 58 q 671 -85 688 -22 q 616 -194 653 -149 q 517 -262 578 -238 q 369 -286 457 -286 q 263 -273 314 -286 q 170 -234 211 -260 q 102 -167 129 -208 q 75 -69 75 -126 l 160 -69 q 187 -136 167 -109 q 236 -180 207 -163 q 299 -204 264 -197 q 370 -212 334 -212 q 546 -142 492 -212 q 601 58 601 -73 l 601 156 l 598 156 q 507 48 567 88 q 370 8 448 8 q 223 36 284 8 q 122 115 162 65 q 65 232 83 165 q 47 376 47 300 q 68 516 47 450 q 131 631 90 582 q 232 709 171 681 q 370 738 292 738 q 510 695 449 738 q 598 594 571 653 l 601 594 l 601 717 l 688 717 l 688 58 m 370 82 q 470 106 427 82 q 542 170 513 130 q 586 261 571 209 q 601 366 601 312 q 588 472 601 419 q 548 568 576 525 q 476 637 520 611 q 370 664 433 664 q 263 638 308 664 q 190 571 219 612 q 147 476 160 529 q 134 366 134 422 q 148 261 134 312 q 191 170 162 209 q 265 106 220 130 q 370 82 309 82 m 227 1007 q 240 957 227 979 q 273 921 253 936 q 317 899 292 906 q 369 893 342 893 q 421 900 396 893 q 466 922 446 908 q 500 958 486 937 q 517 1007 513 979 l 571 1007 q 506 877 560 924 q 368 830 452 830 q 229 875 282 830 q 176 1007 176 921 l 227 1007 "},"Ū":{"x_min":90,"x_max":861,"ha":951,"o":"m 90 992 l 184 992 l 184 378 q 203 231 184 291 q 260 132 222 171 q 352 77 298 94 q 474 60 406 60 q 597 77 542 60 q 690 132 652 94 q 747 231 728 171 q 767 378 767 291 l 767 992 l 861 992 l 861 356 q 839 211 861 280 q 771 91 817 142 q 651 9 724 40 q 474 -21 579 -21 q 299 9 372 -21 q 179 91 226 40 q 111 211 133 142 q 90 356 90 280 l 90 992 m 244 1150 l 244 1213 l 701 1213 l 701 1150 l 244 1150 "},"'":{"x_min":150,"x_max":237.5,"ha":386,"o":"m 150 992 l 237 992 l 237 654 l 150 654 l 150 992 "},"Š":{"x_min":47,"x_max":825,"ha":875,"o":"m 143 326 q 168 198 143 249 q 236 116 193 147 q 340 73 280 86 q 468 60 400 60 q 553 71 507 60 q 638 106 598 82 q 704 168 678 130 q 731 261 731 206 q 712 333 731 302 q 663 384 693 363 q 596 418 633 405 q 525 439 560 431 l 305 494 q 220 521 260 505 q 149 566 180 538 q 100 634 119 594 q 82 733 82 674 q 95 818 82 769 q 147 910 109 866 q 252 983 186 953 q 423 1013 319 1013 q 563 993 497 1013 q 681 935 630 974 q 760 838 731 896 q 790 704 790 780 l 694 704 q 671 803 694 761 q 611 874 649 845 q 526 917 574 902 q 425 932 478 932 q 331 921 376 932 q 251 888 286 911 q 196 827 217 865 q 176 734 176 790 q 187 674 176 699 q 220 631 199 648 q 268 601 241 613 q 325 583 295 590 l 567 523 q 667 489 620 509 q 749 439 713 469 q 804 366 784 409 q 825 262 825 323 q 821 217 825 245 q 804 158 818 190 q 767 95 791 127 q 700 37 743 63 q 596 -5 658 10 q 446 -21 533 -21 q 284 0 359 -21 q 156 61 209 19 q 75 169 103 103 q 47 326 47 235 l 143 326 m 231 1280 l 321 1280 l 441 1138 l 563 1280 l 644 1280 l 485 1084 l 389 1084 l 231 1280 "},"ĳ":{"x_min":85,"x_max":433.5,"ha":518,"o":"m 85 992 l 172 992 l 172 852 l 85 852 l 85 992 m 85 718 l 172 718 l 172 1 l 85 1 l 85 718 m 346 992 l 433 992 l 433 852 l 346 852 l 346 992 m 346 718 l 433 718 l 433 -66 q 427 -142 433 -106 q 403 -205 421 -178 q 356 -249 386 -233 q 280 -265 326 -265 q 250 -263 265 -265 q 220 -262 235 -262 l 220 -189 q 243 -193 231 -193 q 267 -191 256 -193 q 332 -161 318 -191 q 346 -86 346 -131 l 346 718 "},"Œ":{"x_min":51,"x_max":1452.0625,"ha":1491,"o":"m 884 553 l 1395 553 l 1395 472 l 884 472 l 884 80 l 1452 80 l 1452 -1 l 789 -1 l 789 96 q 733 45 764 67 q 666 8 701 22 q 593 -14 631 -6 q 520 -22 556 -22 q 322 19 409 -22 q 175 132 235 61 q 82 297 114 203 q 51 495 51 391 q 82 693 51 599 q 175 858 114 787 q 322 971 235 929 q 520 1013 409 1013 q 670 988 599 1013 q 790 909 740 964 l 790 992 l 1448 992 l 1448 911 l 884 911 l 884 553 m 788 706 q 788 761 788 740 q 782 798 788 781 q 740 855 769 830 q 674 897 711 880 q 595 922 636 913 q 519 932 554 932 q 359 896 429 932 q 241 801 289 861 q 169 662 193 741 q 145 495 145 583 q 169 328 145 407 q 241 189 193 249 q 359 94 289 129 q 519 59 429 59 q 656 82 596 59 q 764 168 715 106 q 783 205 778 185 q 788 245 788 224 l 788 706 "},"Ą":{"x_min":-10.21875,"x_max":899.78125,"ha":875,"o":"m 835 0 q 774 -54 798 -30 q 738 -98 749 -79 q 724 -131 727 -118 q 722 -162 722 -144 q 740 -212 722 -196 q 783 -228 759 -228 q 828 -210 809 -228 q 859 -171 848 -193 l 899 -189 q 842 -261 876 -241 q 763 -282 808 -282 q 669 -250 702 -282 q 637 -168 637 -218 q 641 -141 637 -156 q 657 -106 645 -125 q 700 -59 670 -87 q 783 0 730 -31 l 662 308 l 210 308 l 91 0 l -10 0 l 389 992 l 495 992 l 884 0 l 835 0 m 239 389 l 630 389 l 438 897 l 239 389 "},"T":{"x_min":-7,"x_max":779,"ha":772,"o":"m -7 992 l 779 992 l 779 911 l 433 911 l 433 0 l 339 0 l 339 911 l -7 911 l -7 992 "},"š":{"x_min":43,"x_max":625,"ha":668,"o":"m 511 507 q 495 577 511 547 q 454 626 480 607 q 395 655 429 646 q 324 664 362 664 q 265 658 295 664 q 211 637 236 651 q 170 598 186 622 q 155 540 155 575 q 170 491 155 511 q 206 457 184 470 q 255 434 229 443 q 304 419 281 425 l 420 393 q 495 372 458 387 q 560 334 531 358 q 606 276 588 311 q 625 194 625 241 q 598 95 625 136 q 531 28 572 54 q 438 -9 490 2 q 337 -21 387 -21 q 132 39 211 -21 q 43 232 54 99 l 133 232 q 192 97 133 143 q 340 52 251 52 q 405 59 370 52 q 470 83 440 66 q 518 125 499 99 q 537 188 537 151 q 524 241 537 219 q 488 278 511 263 q 438 302 466 293 q 380 319 409 312 l 267 344 q 188 370 224 355 q 125 406 152 384 q 83 459 98 427 q 68 536 68 490 q 92 629 68 590 q 155 692 116 668 q 242 726 194 715 q 338 738 290 738 q 439 724 392 738 q 521 680 485 710 q 577 608 556 651 q 598 507 598 565 l 511 507 m 134 1015 l 224 1015 l 344 874 l 466 1016 l 547 1016 l 388 820 l 292 820 l 134 1015 "},"j":{"x_min":-42,"x_max":171.5,"ha":256,"o":"m 84 992 l 171 992 l 171 852 l 84 852 l 84 992 m 84 718 l 171 718 l 171 -66 q 165 -142 171 -106 q 141 -205 159 -178 q 94 -249 124 -233 q 18 -265 64 -265 q -11 -263 3 -265 q -42 -262 -26 -262 l -42 -189 q -18 -193 -30 -193 q 5 -191 -6 -193 q 70 -161 56 -191 q 84 -87 84 -131 l 84 718 "},"ş":{"x_min":43,"x_max":625,"ha":668,"o":"m 511 507 q 495 577 511 547 q 454 626 480 607 q 395 655 429 646 q 324 664 362 664 q 265 658 295 664 q 211 637 236 651 q 170 598 186 622 q 155 540 155 575 q 170 491 155 511 q 206 457 184 470 q 255 434 229 443 q 304 419 281 425 l 420 393 q 495 372 458 387 q 560 334 532 358 q 606 276 588 311 q 625 194 625 241 q 598 94 625 135 q 531 27 572 53 q 438 -9 490 2 q 349 -20 392 -20 l 305 -74 q 340 -70 324 -70 q 375 -72 356 -70 q 414 -83 393 -74 q 450 -112 434 -92 q 467 -163 467 -131 q 453 -217 467 -194 q 416 -253 439 -239 q 367 -275 394 -268 q 314 -282 340 -282 q 247 -275 280 -282 q 183 -252 213 -268 l 202 -208 q 251 -221 220 -215 q 312 -228 281 -228 q 363 -214 341 -228 q 386 -167 386 -200 q 367 -128 386 -142 q 326 -114 349 -114 q 255 -125 277 -114 l 233 -105 l 301 -16 q 131 39 199 -16 q 43 232 54 100 l 133 232 q 192 98 133 143 q 340 53 251 53 q 405 59 370 53 q 470 83 440 66 q 518 125 499 100 q 537 189 537 151 q 524 241 537 219 q 488 278 511 263 q 438 302 466 293 q 380 319 409 312 l 267 344 q 188 370 224 355 q 125 406 152 384 q 83 459 98 427 q 68 536 68 490 q 92 629 68 590 q 155 692 116 668 q 242 726 194 715 q 338 738 290 738 q 439 724 392 738 q 521 680 485 710 q 577 608 556 651 q 598 507 598 565 l 511 507 "},"1":{"x_min":135.046875,"x_max":479.5,"ha":773,"o":"m 135 785 q 238 789 192 785 q 319 812 285 794 q 376 868 353 830 q 408 973 398 906 l 479 973 l 479 0 l 392 0 l 392 722 l 135 722 l 135 785 "},"›":{"x_min":101,"x_max":286,"ha":360,"o":"m 101 258 l 231 382 l 101 505 l 101 599 l 286 425 l 286 339 l 101 165 l 101 258 "},"ı":{"x_min":85,"x_max":172.5,"ha":257,"o":"m 85 0 l 85 717 l 172 717 l 172 0 l 85 0 "},"Ć":{"x_min":53,"x_max":933.109375,"ha":978,"o":"m 824 692 q 783 793 812 748 q 714 869 755 839 q 624 916 673 900 q 520 932 574 932 q 351 894 422 932 q 235 795 280 857 q 168 654 190 733 q 147 496 147 576 q 168 336 147 414 q 235 196 190 258 q 351 97 280 134 q 520 60 422 60 q 644 84 588 60 q 741 153 701 109 q 806 253 781 196 q 838 378 831 311 l 933 378 q 890 212 923 286 q 804 86 856 138 q 679 6 751 34 q 520 -21 608 -21 q 316 21 404 -21 q 169 135 227 63 q 82 300 111 206 q 53 496 53 394 q 82 691 53 597 q 169 856 111 785 q 316 970 227 928 q 520 1013 404 1013 q 658 992 591 1013 q 781 930 726 971 q 872 829 835 889 q 919 692 909 769 l 824 692 m 547 1084 l 476 1084 l 622 1280 l 730 1280 l 547 1084 "},"<":{"x_min":64,"x_max":770,"ha":834,"o":"m 770 -11 l 64 314 l 64 389 l 770 714 l 770 637 l 150 351 l 770 65 l 770 -11 "},"ů":{"x_min":82,"x_max":664,"ha":746,"o":"m 664 0 l 583 0 l 583 129 l 580 129 q 480 17 546 56 q 333 -21 414 -21 q 217 -2 265 -21 q 139 51 169 16 q 95 138 109 87 q 82 251 82 188 l 82 717 l 171 717 l 171 249 q 213 102 171 152 q 360 52 256 52 q 457 76 416 52 q 524 141 498 101 q 563 233 551 181 q 576 340 576 286 l 576 717 l 664 717 l 664 0 m 281 944 q 308 877 281 904 q 375 850 335 850 q 442 877 415 850 q 470 944 470 904 q 442 1012 470 985 q 375 1040 415 1040 q 308 1012 335 1040 q 281 944 281 985 m 227 944 q 238 1002 227 975 q 270 1050 250 1029 q 317 1082 290 1070 q 375 1094 344 1094 q 433 1082 406 1094 q 480 1050 460 1070 q 512 1002 500 1029 q 524 944 524 975 q 512 887 524 914 q 480 839 500 860 q 433 807 460 819 q 375 796 406 796 q 317 807 344 796 q 270 839 290 819 q 238 887 250 860 q 227 944 227 914 "},"t":{"x_min":10,"x_max":368,"ha":411,"o":"m 222 717 l 368 717 l 368 643 l 223 643 l 223 158 q 234 91 223 115 q 293 66 246 66 q 368 69 330 66 l 368 -7 q 329 -7 348 -7 q 290 -7 309 -7 q 168 27 203 -7 q 134 152 134 61 l 134 643 l 10 643 l 10 717 l 135 717 l 135 932 l 222 932 l 222 717 "},"Ō":{"x_min":47,"x_max":982,"ha":1029,"o":"m 141 496 q 162 336 141 414 q 229 196 184 258 q 345 97 274 134 q 515 60 416 60 q 683 97 612 60 q 799 196 754 134 q 866 336 844 258 q 888 496 888 414 q 866 654 888 576 q 799 795 844 733 q 683 894 754 857 q 515 932 612 932 q 345 894 416 932 q 229 795 274 857 q 162 654 184 733 q 141 496 141 576 m 47 496 q 76 691 47 597 q 163 856 105 785 q 310 970 222 928 q 515 1013 398 1013 q 719 970 631 1013 q 865 856 806 928 q 952 691 923 785 q 982 496 982 597 q 952 300 982 394 q 865 135 923 206 q 719 21 806 63 q 515 -21 631 -21 q 310 21 398 -21 q 163 135 222 63 q 76 300 105 206 q 47 496 47 394 m 289 1150 l 289 1213 l 746 1213 l 746 1150 l 289 1150 "},"W":{"x_min":0,"x_max":1255.5625,"ha":1260,"o":"m 0 992 l 101 992 l 326 123 l 329 123 l 570 992 l 688 992 l 931 123 l 934 123 l 1161 992 l 1255 992 l 981 0 l 881 0 l 630 888 l 627 888 l 377 0 l 275 0 l 0 992 "},"ĉ":{"x_min":47,"x_max":681.734375,"ha":721,"o":"m 588 492 q 521 618 570 572 q 385 664 472 664 q 276 637 323 664 q 197 568 228 611 q 150 470 166 525 q 134 358 134 415 q 150 246 134 301 q 197 148 166 191 q 276 79 228 105 q 385 52 323 52 q 462 67 426 52 q 526 110 498 83 q 572 174 553 137 q 594 257 590 212 l 681 257 q 585 52 663 126 q 385 -21 506 -21 q 240 9 303 -21 q 134 91 177 40 q 69 211 91 143 q 47 358 47 280 q 69 504 47 434 q 134 625 91 573 q 240 707 177 676 q 385 738 303 738 q 581 676 501 738 q 676 492 660 615 l 588 492 m 591 818 l 501 818 l 381 960 l 259 818 l 178 818 l 337 1014 l 433 1014 l 591 818 "},"Ğ":{"x_min":53,"x_max":947,"ha":1029,"o":"m 947 0 l 872 0 l 872 181 l 863 181 q 801 89 838 128 q 720 27 765 51 q 625 -9 676 2 q 520 -21 574 -21 q 316 21 404 -21 q 169 135 227 63 q 82 300 111 206 q 53 496 53 394 q 82 691 53 597 q 169 856 111 785 q 316 970 227 928 q 520 1013 404 1013 q 667 992 598 1013 q 792 929 737 971 q 883 826 847 888 q 934 684 920 764 l 840 684 q 811 770 835 726 q 746 850 787 814 q 648 909 705 886 q 520 932 591 932 q 351 894 422 932 q 235 795 280 857 q 168 654 190 733 q 147 496 147 576 q 168 336 147 414 q 235 196 189 258 q 350 97 280 134 q 519 60 421 60 q 666 87 601 60 q 774 162 730 114 q 841 278 819 211 q 863 424 863 344 l 526 424 l 526 505 l 947 505 l 947 0 m 375 1270 q 388 1221 375 1242 q 421 1184 401 1199 q 465 1162 440 1169 q 517 1156 490 1156 q 568 1163 543 1156 q 614 1186 593 1171 q 647 1221 634 1200 q 665 1270 660 1242 l 719 1270 q 654 1140 708 1188 q 516 1093 600 1093 q 377 1139 430 1093 q 324 1270 324 1185 l 375 1270 "},">":{"x_min":64,"x_max":770,"ha":834,"o":"m 683 351 l 64 637 l 64 714 l 770 389 l 770 314 l 64 -11 l 64 65 l 683 351 "},"v":{"x_min":2.78125,"x_max":640.28125,"ha":643,"o":"m 2 717 l 100 717 l 325 88 l 327 88 l 550 717 l 640 717 l 372 0 l 279 0 l 2 717 "},"ī":{"x_min":-99,"x_max":358,"ha":257,"o":"m 84 0 l 84 717 l 172 717 l 172 0 l 84 0 m -99 886 l -99 949 l 358 949 l 358 886 l -99 886 "},"Ź":{"x_min":7,"x_max":779,"ha":797,"o":"m 51 992 l 765 992 l 765 908 l 112 80 l 779 80 l 779 -1 l 7 -1 l 7 82 l 659 911 l 51 911 l 51 992 m 424 1083 l 353 1083 l 499 1279 l 608 1279 l 424 1083 "},"Ų":{"x_min":90,"x_max":861,"ha":951,"o":"m 90 992 l 184 992 l 184 377 q 203 230 184 291 q 260 132 222 170 q 352 76 298 93 q 474 59 406 59 q 597 76 542 59 q 690 132 652 93 q 747 230 728 170 q 767 377 767 291 l 767 992 l 861 992 l 861 354 q 839 209 861 278 q 771 88 818 140 q 651 6 725 37 q 516 -17 594 -17 q 479 -54 496 -39 q 444 -99 455 -79 q 430 -131 433 -118 q 428 -162 428 -144 q 446 -212 428 -196 q 489 -228 465 -228 q 534 -210 515 -228 q 565 -171 554 -193 l 605 -189 q 548 -261 582 -241 q 469 -282 514 -282 q 375 -250 408 -282 q 343 -168 343 -218 q 347 -141 343 -157 q 363 -106 351 -125 q 405 -60 376 -87 q 455 -20 425 -42 q 298 7 365 -20 q 179 89 226 38 q 111 210 133 141 q 90 355 90 279 l 90 992 "},"Ŵ":{"x_min":0,"x_max":1255.5625,"ha":1260,"o":"m 0 992 l 101 992 l 326 123 l 329 123 l 570 992 l 688 992 l 931 123 l 934 123 l 1161 992 l 1255 992 l 981 0 l 881 0 l 630 888 l 627 888 l 377 0 l 275 0 l 0 992 m 837 1082 l 747 1082 l 627 1223 l 505 1082 l 425 1082 l 583 1278 l 679 1278 l 837 1082 "},"&":{"x_min":54,"x_max":860.828125,"ha":848,"o":"m 394 918 q 301 885 340 918 q 262 790 262 853 q 273 737 262 764 q 301 684 284 710 q 337 634 317 658 q 373 590 356 610 q 426 626 399 607 q 476 670 453 646 q 512 724 498 694 q 526 790 526 754 q 487 885 526 853 q 394 918 448 918 m 645 129 q 516 20 591 61 q 353 -21 441 -21 q 235 -2 290 -21 q 140 50 180 15 q 76 138 99 86 q 54 257 54 190 q 76 354 54 309 q 133 435 98 398 q 212 500 169 471 q 297 551 255 529 q 254 605 276 578 q 215 661 233 632 q 186 722 198 690 q 175 790 175 754 q 192 873 175 836 q 239 936 209 910 q 308 977 269 962 q 394 992 348 992 q 479 977 440 992 q 548 936 519 962 q 596 873 578 910 q 613 790 613 836 q 596 707 613 744 q 553 639 580 669 q 491 583 526 608 q 419 533 456 557 l 635 272 q 659 345 653 308 q 665 439 665 382 l 752 439 q 740 331 752 397 q 694 201 728 265 l 860 0 l 751 0 l 645 129 m 344 494 q 272 451 308 475 q 206 397 235 428 q 159 330 177 366 q 141 248 141 293 q 159 168 141 204 q 207 106 177 133 q 276 66 237 80 q 356 52 315 52 q 490 93 431 52 q 591 194 549 134 l 344 494 "},"Ď":{"x_min":100,"x_max":898,"ha":951,"o":"m 100 990 l 442 990 q 782 866 667 990 q 898 496 898 743 q 782 126 898 249 q 442 3 667 3 l 100 3 l 100 990 m 194 81 l 395 81 q 579 103 502 81 q 706 176 656 126 q 780 306 756 226 q 804 496 804 385 q 780 686 804 607 q 706 816 756 766 q 579 889 656 866 q 395 912 502 912 l 194 912 l 194 81 m 216 1280 l 306 1280 l 426 1138 l 548 1280 l 628 1280 l 470 1084 l 374 1084 l 216 1280 "},"I":{"x_min":107,"x_max":201,"ha":308,"o":"m 107 992 l 201 992 l 201 0 l 107 0 l 107 992 "},"G":{"x_min":53,"x_max":947,"ha":1029,"o":"m 947 0 l 872 0 l 872 181 l 863 181 q 801 89 838 128 q 720 27 765 51 q 625 -9 676 2 q 520 -21 574 -21 q 316 21 404 -21 q 169 135 227 63 q 82 300 111 206 q 53 496 53 394 q 82 691 53 597 q 169 856 111 785 q 316 970 227 928 q 520 1013 404 1013 q 667 992 598 1013 q 792 929 737 971 q 883 826 847 888 q 934 684 920 764 l 840 684 q 811 770 835 726 q 746 850 787 814 q 648 909 705 886 q 520 932 591 932 q 351 894 422 932 q 235 795 280 857 q 168 654 190 733 q 147 496 147 576 q 168 336 147 414 q 235 196 189 258 q 350 97 280 134 q 519 60 421 60 q 666 87 601 60 q 774 162 730 114 q 841 278 819 211 q 863 424 863 344 l 526 424 l 526 505 l 947 505 l 947 0 "},"`":{"x_min":-43.0625,"x_max":211.109375,"ha":257,"o":"m -43 1013 l 65 1013 l 211 817 l 140 817 l -43 1013 "},"Ĺ":{"x_min":100,"x_max":749.5625,"ha":745,"o":"m 100 992 l 194 992 l 194 80 l 749 80 l 749 -1 l 100 -1 l 100 992 m 180 1084 l 109 1084 l 255 1279 l 363 1279 l 180 1084 "},"r":{"x_min":83,"x_max":437.171875,"ha":437,"o":"m 83 717 l 163 717 l 163 549 l 166 549 q 269 681 199 635 q 437 728 339 728 l 437 640 q 328 621 377 640 q 244 568 280 602 q 189 485 209 534 q 170 382 170 437 l 170 0 l 83 0 l 83 717 "},"ŏ":{"x_min":47,"x_max":725,"ha":772,"o":"m 386 664 q 276 637 323 664 q 197 568 229 611 q 150 470 166 525 q 134 358 134 415 q 150 246 134 301 q 197 148 166 191 q 276 79 229 105 q 386 52 323 52 q 495 79 448 52 q 574 148 543 105 q 621 246 605 191 q 637 358 637 301 q 621 470 637 415 q 574 568 605 525 q 495 637 543 611 q 386 664 448 664 m 386 738 q 531 707 467 738 q 637 625 594 676 q 702 504 680 573 q 725 358 725 434 q 702 211 725 280 q 637 91 680 143 q 531 9 594 40 q 386 -21 467 -21 q 240 9 304 -21 q 134 91 177 40 q 69 211 91 143 q 47 358 47 280 q 69 504 47 434 q 134 625 91 573 q 240 707 177 676 q 386 738 304 738 m 245 1006 q 258 956 245 978 q 291 920 271 935 q 335 898 310 905 q 387 892 361 892 q 439 899 414 892 q 484 921 464 907 q 518 957 505 936 q 535 1006 531 978 l 590 1006 q 524 876 578 923 q 386 829 470 829 q 247 874 300 829 q 194 1006 194 920 l 245 1006 "},"Č":{"x_min":53,"x_max":933.109375,"ha":978,"o":"m 824 692 q 783 793 812 748 q 714 869 755 839 q 624 916 673 900 q 520 932 574 932 q 351 894 422 932 q 235 795 280 857 q 168 654 190 733 q 147 496 147 576 q 168 336 147 414 q 235 196 190 258 q 351 97 280 134 q 520 60 422 60 q 644 84 588 60 q 741 153 701 109 q 806 253 781 196 q 838 378 831 311 l 933 378 q 890 212 923 286 q 804 86 856 138 q 679 6 751 34 q 520 -21 608 -21 q 316 21 404 -21 q 169 135 227 63 q 82 300 111 206 q 53 496 53 394 q 82 691 53 597 q 169 856 111 785 q 316 970 227 928 q 520 1013 404 1013 q 658 992 591 1013 q 781 930 726 971 q 872 829 835 889 q 919 692 909 769 l 824 692 m 305 1280 l 395 1280 l 515 1138 l 637 1280 l 717 1280 l 559 1084 l 463 1084 l 305 1280 "},"x":{"x_min":1.390625,"x_max":666.671875,"ha":668,"o":"m 279 372 l 22 717 l 131 717 l 336 444 l 536 717 l 645 717 l 387 373 l 666 0 l 555 0 l 330 301 l 109 0 l 1 0 l 279 372 "},"Ń":{"x_min":99,"x_max":879,"ha":978,"o":"m 99 992 l 204 992 l 782 153 l 785 153 l 785 992 l 879 992 l 879 0 l 773 0 l 195 839 l 193 839 l 193 0 l 99 0 l 99 992 m 507 1084 l 436 1084 l 582 1280 l 690 1280 l 507 1084 "},"ź":{"x_min":21,"x_max":620,"ha":644,"o":"m 126 73 l 620 73 l 620 0 l 21 0 l 21 70 l 488 643 l 53 643 l 53 717 l 600 717 l 600 654 l 126 73 m 350 820 l 279 820 l 425 1015 l 533 1015 l 350 820 "},"ű":{"x_min":82,"x_max":689,"ha":746,"o":"m 664 0 l 583 0 l 583 129 l 580 129 q 479 17 545 56 q 333 -21 414 -21 q 217 -2 265 -21 q 139 51 169 16 q 95 138 109 87 q 82 251 82 188 l 82 717 l 171 717 l 171 249 q 213 102 171 152 q 360 52 256 52 q 457 76 416 52 q 524 141 498 101 q 563 233 551 181 q 576 340 576 286 l 576 717 l 664 717 l 664 0 m 443 820 l 583 1015 l 689 1015 l 514 820 l 443 820 m 226 820 l 366 1016 l 472 1016 l 297 820 l 226 820 "},"h":{"x_min":82,"x_max":664,"ha":746,"o":"m 82 992 l 169 992 l 169 593 l 172 593 q 207 652 184 625 q 261 698 230 679 q 327 727 291 717 q 401 738 363 738 q 527 718 476 738 q 608 663 577 699 q 651 576 639 628 q 664 461 664 525 l 664 0 l 576 0 l 576 447 q 568 532 576 493 q 538 601 559 572 q 482 647 517 630 q 393 664 446 664 q 299 645 340 664 q 229 594 258 626 q 184 516 200 561 q 169 418 169 470 l 169 0 l 82 0 l 82 992 "},".":{"x_min":135,"x_max":252,"ha":387,"o":"m 135 0 l 135 147 l 252 147 l 252 0 l 135 0 "},"ń":{"x_min":82,"x_max":664,"ha":746,"o":"m 82 717 l 169 717 l 169 593 l 172 593 q 207 652 184 625 q 261 698 230 679 q 327 727 291 717 q 401 738 363 738 q 527 718 476 738 q 608 663 577 699 q 651 576 639 628 q 664 461 664 525 l 664 0 l 576 0 l 576 447 q 568 532 576 493 q 538 601 559 572 q 482 647 517 630 q 393 664 446 664 q 299 645 340 664 q 229 594 258 626 q 184 516 200 561 q 169 418 169 470 l 169 0 l 82 0 l 82 717 m 398 820 l 327 820 l 473 1016 l 582 1016 l 398 820 "},";":{"x_min":129,"x_max":252,"ha":387,"o":"m 135 548 l 135 695 l 252 695 l 252 548 l 135 548 m 252 147 l 252 -1 q 244 -61 252 -32 q 221 -117 236 -91 q 182 -162 205 -143 q 129 -190 159 -182 l 129 -130 q 158 -109 146 -125 q 179 -75 171 -94 q 191 -36 187 -56 q 193 0 194 -16 l 135 0 l 135 147 l 252 147 "},"f":{"x_min":8,"x_max":377,"ha":359,"o":"m 359 643 l 217 643 l 217 0 l 130 0 l 130 643 l 8 643 l 8 717 l 130 717 l 130 782 q 136 866 130 828 q 163 933 143 905 q 216 976 182 961 q 303 992 250 992 q 339 990 322 992 q 377 986 356 989 l 377 911 q 343 916 359 914 q 312 918 328 918 q 256 907 276 918 q 228 877 237 896 q 219 833 219 858 q 219 779 219 808 l 219 717 l 359 717 l 359 643 "},"“":{"x_min":89,"x_max":427,"ha":515,"o":"m 89 655 l 89 803 q 96 863 89 834 q 119 919 104 893 q 157 964 134 945 q 213 992 180 984 l 213 932 q 182 911 194 925 q 161 877 169 896 q 149 838 153 858 q 147 802 146 818 l 206 802 l 206 655 l 89 655 m 303 655 l 303 803 q 310 863 303 834 q 333 919 318 893 q 371 964 348 945 q 427 992 394 984 l 427 932 q 396 911 408 925 q 375 877 383 896 q 363 838 367 858 q 361 802 360 818 l 420 802 l 420 655 l 303 655 "},"Ġ":{"x_min":53,"x_max":947,"ha":1029,"o":"m 947 0 l 872 0 l 872 181 l 863 181 q 801 89 838 128 q 720 27 765 51 q 625 -9 676 2 q 520 -21 574 -21 q 316 21 404 -21 q 169 135 227 63 q 82 300 111 206 q 53 496 53 394 q 82 691 53 597 q 169 856 111 785 q 316 970 227 928 q 520 1013 404 1013 q 667 992 598 1013 q 792 929 737 971 q 883 826 847 888 q 934 684 920 764 l 840 684 q 811 770 835 726 q 746 850 787 814 q 648 909 705 886 q 520 932 591 932 q 351 894 422 932 q 235 795 280 857 q 168 654 190 733 q 147 496 147 576 q 168 336 147 414 q 235 196 189 258 q 350 97 280 134 q 519 60 421 60 q 666 87 601 60 q 774 162 730 114 q 841 278 819 211 q 863 424 863 344 l 526 424 l 526 505 l 947 505 l 947 0 m 475 1112 l 475 1252 l 569 1252 l 569 1112 l 475 1112 "},"A":{"x_min":-9.71875,"x_max":884.71875,"ha":875,"o":"m 240 389 l 630 389 l 438 897 l 240 389 m 390 992 l 495 992 l 884 0 l 783 0 l 662 308 l 211 308 l 91 0 l -9 0 l 390 992 "},"6":{"x_min":58,"x_max":724.5,"ha":772,"o":"m 613 727 q 548 857 602 807 q 410 907 495 907 q 273 864 326 907 q 191 755 220 821 q 152 614 162 690 q 143 472 143 538 l 145 472 q 250 589 180 544 q 403 633 320 633 q 535 609 476 633 q 637 541 595 585 q 701 439 678 498 q 724 308 724 379 q 700 177 724 237 q 632 72 676 116 q 528 4 588 29 q 396 -21 468 -21 q 244 6 308 -21 q 139 95 181 33 q 78 255 98 156 q 58 495 58 354 q 58 572 58 525 q 70 673 58 619 q 106 781 83 726 q 167 880 129 836 q 263 953 206 925 q 400 981 320 981 q 607 917 530 981 q 700 727 685 854 l 613 727 m 402 560 q 300 539 345 560 q 224 484 255 519 q 176 403 192 450 q 161 302 161 357 q 174 205 161 251 q 218 125 188 159 q 294 72 248 91 q 403 52 340 52 q 498 72 455 52 q 572 127 541 92 q 620 206 603 161 q 637 302 637 252 q 621 402 637 355 q 575 484 605 450 q 501 539 545 519 q 402 560 457 560 "},"‘":{"x_min":132,"x_max":256,"ha":387,"o":"m 132 655 l 132 803 q 139 863 132 834 q 162 919 147 893 q 200 964 177 945 q 256 992 223 984 l 256 932 q 225 911 237 925 q 204 877 212 896 q 192 838 196 858 q 190 802 189 818 l 249 802 l 249 655 l 132 655 "},"O":{"x_min":47,"x_max":982,"ha":1029,"o":"m 141 496 q 162 336 141 414 q 229 196 184 258 q 345 97 274 134 q 515 60 416 60 q 683 97 612 60 q 799 196 754 134 q 866 336 844 258 q 888 496 888 414 q 866 654 888 576 q 799 795 844 733 q 683 894 754 857 q 515 932 612 932 q 345 894 416 932 q 229 795 274 857 q 162 654 184 733 q 141 496 141 576 m 47 496 q 76 691 47 597 q 163 856 105 785 q 310 970 222 928 q 515 1013 398 1013 q 719 970 631 1013 q 865 856 806 928 q 952 691 923 785 q 982 496 982 597 q 952 300 982 394 q 865 135 923 206 q 719 21 806 63 q 515 -21 631 -21 q 310 21 398 -21 q 163 135 222 63 q 76 300 105 206 q 47 496 47 394 "},"n":{"x_min":82,"x_max":664,"ha":746,"o":"m 82 717 l 169 717 l 169 593 l 172 593 q 207 652 184 625 q 261 698 230 679 q 327 727 291 717 q 401 738 363 738 q 527 718 476 738 q 608 663 577 699 q 651 576 639 628 q 664 461 664 525 l 664 0 l 576 0 l 576 447 q 568 532 576 493 q 538 601 559 572 q 482 647 517 630 q 393 664 446 664 q 299 645 340 664 q 229 594 258 626 q 184 516 200 561 q 169 418 169 470 l 169 0 l 82 0 l 82 717 "},"Đ":{"x_min":0,"x_max":898,"ha":951,"o":"m 100 990 l 442 990 q 782 866 667 990 q 898 496 898 743 q 782 126 898 249 q 442 3 667 3 l 100 3 l 100 484 l 0 484 l 0 547 l 100 547 l 100 990 m 194 547 l 522 547 l 522 484 l 194 484 l 194 81 l 395 81 q 579 103 502 81 q 706 176 656 126 q 780 306 756 226 q 804 496 804 385 q 780 686 804 607 q 706 816 756 766 q 579 889 656 866 q 395 912 502 912 l 194 912 l 194 547 "},"ģ":{"x_min":47,"x_max":688.5,"ha":772,"o":"m 688 58 q 671 -85 688 -22 q 616 -194 653 -149 q 517 -262 578 -238 q 369 -286 457 -286 q 263 -273 314 -286 q 170 -234 211 -260 q 102 -167 129 -208 q 75 -69 75 -126 l 160 -69 q 188 -136 167 -109 q 236 -180 208 -163 q 299 -204 265 -197 q 370 -212 334 -212 q 546 -142 492 -212 q 601 58 601 -73 l 601 156 l 598 156 q 507 48 567 88 q 370 8 448 8 q 223 36 284 8 q 122 115 162 65 q 65 232 83 165 q 47 376 47 300 q 68 516 47 450 q 131 631 90 582 q 232 709 171 681 q 370 738 292 738 q 510 695 449 738 q 598 594 571 653 l 601 594 l 601 717 l 688 717 l 688 58 m 370 82 q 470 106 427 82 q 542 170 513 130 q 586 261 571 209 q 601 366 601 312 q 588 472 601 419 q 548 568 576 525 q 476 637 520 611 q 370 664 433 664 q 263 638 308 664 q 190 571 219 612 q 147 476 160 529 q 134 366 134 422 q 148 261 134 312 q 191 170 162 209 q 265 106 220 130 q 370 82 309 82 m 328 866 l 328 976 q 345 1035 328 1014 q 386 1067 362 1057 q 447 1076 411 1076 l 447 1039 q 416 1028 426 1035 q 400 1012 406 1022 q 393 992 394 1003 l 447 992 l 447 866 l 328 866 "},"3":{"x_min":43,"x_max":712.5,"ha":772,"o":"m 132 310 q 147 204 132 251 q 195 123 163 156 q 272 71 226 90 q 377 52 318 52 q 469 66 424 52 q 548 108 514 80 q 604 175 583 136 q 625 268 625 215 q 606 358 625 319 q 556 423 588 397 q 482 461 524 448 q 391 474 439 474 l 318 474 l 318 547 l 391 547 q 460 557 424 547 q 524 589 495 567 q 570 644 552 611 q 589 724 589 678 q 572 805 589 771 q 526 863 555 840 q 458 896 497 886 q 376 907 419 907 q 280 889 322 907 q 210 838 238 871 q 167 760 181 805 q 154 661 154 715 l 68 661 q 89 788 68 729 q 150 889 111 847 q 247 956 190 932 q 375 981 304 981 q 486 966 431 981 q 582 921 540 951 q 650 844 625 892 q 676 733 676 797 q 634 596 676 654 q 512 518 591 537 l 512 515 q 660 435 608 500 q 712 275 712 371 q 685 148 712 204 q 612 55 658 93 q 506 -1 567 17 q 379 -21 445 -21 q 241 1 304 -21 q 133 65 178 23 q 65 170 88 108 q 43 310 43 232 l 132 310 "},"9":{"x_min":47,"x_max":712,"ha":772,"o":"m 158 233 q 222 102 169 152 q 360 52 276 52 q 498 95 445 52 q 580 204 551 138 q 619 345 609 269 q 629 488 629 421 l 626 488 q 521 370 591 415 q 367 326 451 326 q 235 350 294 326 q 134 418 176 374 q 69 520 92 461 q 47 651 47 580 q 71 782 47 722 q 138 887 95 843 q 242 955 182 930 q 373 981 302 981 q 525 953 462 981 q 630 864 589 926 q 691 704 671 803 q 712 464 712 605 q 712 387 712 434 q 699 286 712 340 q 663 178 686 233 q 602 79 640 123 q 507 6 564 34 q 370 -21 449 -21 q 163 42 240 -21 q 70 233 85 105 l 158 233 m 369 400 q 471 420 426 400 q 547 475 516 440 q 595 556 579 509 q 611 657 611 602 q 597 754 611 708 q 553 834 583 800 q 477 887 523 868 q 367 907 431 907 q 272 887 315 907 q 199 832 230 867 q 151 753 167 798 q 134 657 134 707 q 150 557 134 604 q 196 475 166 509 q 269 420 226 440 q 369 400 313 400 "},"l":{"x_min":85,"x_max":172.5,"ha":257,"o":"m 85 992 l 172 992 l 172 0 l 85 0 l 85 992 "},"4":{"x_min":42,"x_max":717,"ha":773,"o":"m 490 315 l 490 845 l 487 845 l 121 315 l 490 315 m 42 326 l 491 973 l 571 973 l 571 315 l 717 315 l 717 242 l 571 242 l 571 0 l 490 0 l 490 242 l 42 242 l 42 326 "},"p":{"x_min":83,"x_max":744,"ha":797,"o":"m 83 718 l 163 718 l 163 581 l 166 581 q 265 696 196 655 q 421 738 334 738 q 564 708 503 738 q 664 625 624 677 q 724 504 705 573 q 744 359 744 435 q 724 213 744 282 q 664 92 705 144 q 564 9 624 40 q 421 -20 503 -20 q 343 -10 381 -20 q 271 19 305 -1 q 212 68 238 39 q 173 137 187 97 l 170 137 l 170 -265 l 83 -265 l 83 718 m 656 359 q 643 469 656 414 q 601 567 630 524 q 528 637 573 610 q 421 665 484 665 q 301 639 349 665 q 223 573 252 614 q 182 475 194 531 q 170 359 170 420 q 183 248 170 303 q 226 150 196 193 q 304 80 256 107 q 421 53 352 53 q 528 80 484 53 q 601 150 573 107 q 643 248 630 193 q 656 359 656 303 "},"Ĝ":{"x_min":53,"x_max":947,"ha":1029,"o":"m 947 0 l 872 0 l 872 181 l 863 181 q 801 89 838 128 q 720 27 765 51 q 625 -9 676 2 q 520 -21 574 -21 q 316 21 404 -21 q 169 135 227 63 q 82 300 111 206 q 53 496 53 394 q 82 691 53 597 q 169 856 111 785 q 316 970 227 928 q 520 1013 404 1013 q 667 992 598 1013 q 792 929 737 971 q 883 826 847 888 q 934 684 920 764 l 840 684 q 811 770 835 726 q 746 850 787 814 q 648 909 705 886 q 520 932 591 932 q 351 894 422 932 q 235 795 280 857 q 168 654 190 733 q 147 496 147 576 q 168 336 147 414 q 235 196 189 258 q 350 97 280 134 q 519 60 421 60 q 666 87 601 60 q 774 162 730 114 q 841 278 819 211 q 863 424 863 344 l 526 424 l 526 505 l 947 505 l 947 0 m 724 1083 l 634 1083 l 515 1224 l 392 1083 l 312 1083 l 470 1278 l 566 1278 l 724 1083 "},"‡":{"x_min":67,"x_max":706,"ha":773,"o":"m 67 65 l 67 139 l 342 139 l 342 643 l 67 643 l 67 717 l 342 717 l 342 992 l 429 992 l 429 717 l 706 717 l 706 643 l 429 643 l 429 139 l 706 139 l 706 65 l 429 65 l 429 -210 l 342 -210 l 342 65 l 67 65 "},"Ť":{"x_min":-7,"x_max":779,"ha":772,"o":"m -7 992 l 779 992 l 779 911 l 433 911 l 433 0 l 339 0 l 339 911 l -7 911 l -7 992 m 181 1279 l 272 1279 l 391 1137 l 513 1279 l 594 1279 l 435 1083 l 340 1083 l 181 1279 "},"Ś":{"x_min":47,"x_max":825,"ha":875,"o":"m 143 326 q 168 198 143 249 q 236 116 193 147 q 340 73 280 86 q 468 60 400 60 q 553 71 507 60 q 638 106 598 82 q 704 168 678 130 q 731 261 731 206 q 712 333 731 302 q 663 384 693 363 q 596 418 633 405 q 525 439 560 431 l 305 494 q 220 521 260 505 q 149 566 180 538 q 100 634 119 594 q 82 733 82 674 q 95 818 82 769 q 147 910 109 866 q 252 983 186 953 q 423 1013 319 1013 q 563 993 497 1013 q 681 935 630 974 q 760 838 731 896 q 790 704 790 780 l 694 704 q 671 803 694 761 q 611 874 649 845 q 526 917 574 902 q 425 932 478 932 q 331 921 376 932 q 251 888 286 911 q 196 827 217 865 q 176 734 176 790 q 187 674 176 699 q 220 631 199 648 q 268 601 241 613 q 325 583 295 590 l 567 523 q 667 489 620 509 q 749 439 713 469 q 804 366 784 409 q 825 262 825 323 q 821 217 825 245 q 804 158 818 190 q 767 95 791 127 q 700 37 743 63 q 596 -5 658 10 q 446 -21 533 -21 q 284 0 359 -21 q 156 61 209 19 q 75 169 103 103 q 47 326 47 235 l 143 326 m 455 1084 l 384 1084 l 530 1280 l 638 1280 l 455 1084 "},"ň":{"x_min":82,"x_max":664,"ha":746,"o":"m 82 717 l 169 717 l 169 593 l 172 593 q 207 652 184 625 q 261 698 230 679 q 327 727 291 717 q 401 738 363 738 q 527 718 476 738 q 608 663 577 699 q 651 576 639 628 q 664 461 664 525 l 664 0 l 576 0 l 576 447 q 568 532 576 493 q 538 601 559 572 q 482 647 517 630 q 393 664 446 664 q 299 645 340 664 q 229 594 258 626 q 184 516 200 561 q 169 418 169 470 l 169 0 l 82 0 l 82 717 m 165 1016 l 255 1016 l 375 874 l 497 1016 l 577 1016 l 419 820 l 323 820 l 165 1016 "},"ŗ":{"x_min":71,"x_max":437.671875,"ha":438,"o":"m 83 717 l 164 717 l 164 549 l 166 549 q 270 681 199 635 q 437 728 340 728 l 437 640 q 329 621 377 640 q 245 568 280 602 q 190 485 209 534 q 171 382 171 437 l 171 0 l 83 0 l 83 717 m 190 -70 l 190 -181 q 172 -240 190 -219 q 131 -272 155 -262 q 71 -282 106 -282 l 71 -243 q 101 -232 91 -239 q 117 -216 111 -226 q 125 -196 123 -207 l 71 -196 l 71 -70 l 190 -70 "},"ę":{"x_min":47,"x_max":687.28125,"ha":721,"o":"m 134 335 q 148 236 134 286 q 190 146 162 186 q 262 79 217 105 q 370 53 308 53 q 520 103 466 53 q 595 236 574 154 l 683 236 q 580 46 655 114 q 418 -17 520 -7 q 379 -53 395 -37 q 344 -98 355 -78 q 330 -131 333 -117 q 328 -162 328 -144 q 346 -211 328 -195 q 389 -228 365 -228 q 434 -210 415 -228 q 465 -170 454 -193 l 505 -188 q 447 -261 481 -241 q 369 -282 413 -282 q 275 -250 308 -282 q 243 -167 243 -218 q 247 -140 243 -156 q 263 -106 251 -124 q 305 -59 276 -87 q 355 -19 325 -41 q 223 8 279 -19 q 123 91 162 39 q 65 212 84 143 q 47 358 47 281 q 65 497 47 429 q 123 619 84 565 q 223 705 162 672 q 369 738 283 738 q 516 703 455 738 q 615 612 577 668 q 670 482 654 555 q 687 335 687 410 l 134 335 m 597 408 q 581 504 597 458 q 535 585 565 550 q 465 642 506 621 q 370 664 423 664 q 274 642 316 664 q 203 585 233 621 q 157 503 174 550 q 134 408 140 457 l 597 408 "}}}
